<?xml version="1.0" encoding="UTF-8" standalone="no"?>
<!DOCTYPE svg PUBLIC "-//W3C//DTD SVG 1.1//EN"
 "http://www.w3.org/Graphics/SVG/1.1/DTD/svg11.dtd">
<!-- Generated by graphviz version 3.0.0 (20220226.1711)
 -->
<!-- Title: TabGraph Pages: 1 -->
<svg width="359pt" height="689pt"
 viewBox="0.00 0.00 359.00 689.00" xmlns="http://www.w3.org/2000/svg" xmlns:xlink="http://www.w3.org/1999/xlink">
<g id="graph0" class="graph" transform="scale(1 1) rotate(0) translate(4 685)">
<title>TabGraph</title>
<polygon fill="white" stroke="transparent" points="-4,4 -4,-685 355,-685 355,4 -4,4"/>
<!-- COUNTRIES -->
<g id="node1" class="node">
<title>COUNTRIES</title>
<polygon fill="#c0c0c0" stroke="transparent" points="3,-149.5 3,-166.5 129,-166.5 129,-149.5 3,-149.5"/>
<text text-anchor="start" x="43" y="-157.1" font-family="Arial" font-weight="bold" font-size="8.00">COUNTRIES</text>
<text text-anchor="start" x="7" y="-139.1" font-family="Arial" font-size="8.00">PK</text>
<text text-anchor="start" x="25" y="-140.1" font-family="Arial" font-weight="bold" text-decoration="underline" font-size="8.00">country_id</text>
<text text-anchor="start" x="69" y="-140.1" font-family="Arial" font-style="italic" font-size="8.00" fill="#c0c0c0">char(2)</text>
<text text-anchor="start" x="10.5" y="-122.1" font-family="Arial" font-size="8.00"> </text>
<text text-anchor="start" x="25" y="-123.1" font-family="Arial" font-size="8.00">country_name</text>
<text text-anchor="start" x="77" y="-123.1" font-family="Arial" font-style="italic" font-size="8.00" fill="#c0c0c0">varchar2(40)</text>
<text text-anchor="start" x="10.5" y="-105.1" font-family="Arial" font-size="8.00"> </text>
<text text-anchor="start" x="25" y="-106.1" font-family="Arial" font-size="8.00">region_id</text>
<text text-anchor="start" x="59" y="-106.1" font-family="Arial" font-style="italic" font-size="8.00" fill="#c0c0c0">number</text>
<polygon fill="black" stroke="black" points="2,-149.5 2,-149.5 130,-149.5 130,-149.5 2,-149.5"/>
<polygon fill="black" stroke="black" points="21,-132.5 21,-149.5 21,-149.5 21,-132.5 21,-132.5"/>
<polygon fill="black" stroke="black" points="21,-115.5 21,-132.5 21,-132.5 21,-115.5 21,-115.5"/>
<polygon fill="black" stroke="black" points="21,-97.5 21,-115.5 21,-115.5 21,-97.5 21,-97.5"/>
<polygon fill="none" stroke="black" points="2,-97.5 2,-167.5 130,-167.5 130,-97.5 2,-97.5"/>
</g>
<!-- REGIONS -->
<g id="node2" class="node">
<title>REGIONS</title>
<polygon fill="#c0c0c0" stroke="transparent" points="6,-34.5 6,-51.5 127,-51.5 127,-34.5 6,-34.5"/>
<text text-anchor="start" x="49" y="-42.1" font-family="Arial" font-weight="bold" font-size="8.00">REGIONS</text>
<text text-anchor="start" x="10" y="-24.1" font-family="Arial" font-size="8.00">PK</text>
<text text-anchor="start" x="28" y="-25.1" font-family="Arial" font-weight="bold" text-decoration="underline" font-size="8.00">region_id</text>
<text text-anchor="start" x="68" y="-25.1" font-family="Arial" font-style="italic" font-size="8.00" fill="#c0c0c0">number</text>
<text text-anchor="start" x="13.5" y="-7.1" font-family="Arial" font-size="8.00"> </text>
<text text-anchor="start" x="28" y="-8.1" font-family="Arial" font-size="8.00">region_name</text>
<text text-anchor="start" x="75" y="-8.1" font-family="Arial" font-style="italic" font-size="8.00" fill="#c0c0c0">varchar2(25)</text>
<polygon fill="black" stroke="black" points="5,-34.5 5,-34.5 128,-34.5 128,-34.5 5,-34.5"/>
<polygon fill="black" stroke="black" points="24,-17.5 24,-34.5 24,-34.5 24,-17.5 24,-17.5"/>
<polygon fill="black" stroke="black" points="24,0.5 24,-17.5 24,-17.5 24,0.5 24,0.5"/>
<polygon fill="none" stroke="black" points="4.5,0 4.5,-53 127.5,-53 127.5,0 4.5,0"/>
</g>
<!-- COUNTRIES&#45;&#45;REGIONS -->
<g id="edge1" class="edge">
<title>COUNTRIES&#45;&#45;REGIONS</title>
<path fill="none" stroke="black" d="M66,-97.45C66,-86.49 66,-74.33 66,-63.26"/>
<polygon fill="black" stroke="black" points="69.5,-63.05 66,-53.05 62.5,-63.05 69.5,-63.05"/>
</g>
<!-- LOCATIONS -->
<g id="node3" class="node">
<title>LOCATIONS</title>
<polygon fill="#c0c0c0" stroke="transparent" points="1,-357 1,-374 131,-374 131,-357 1,-357"/>
<text text-anchor="start" x="42" y="-364.6" font-family="Arial" font-weight="bold" font-size="8.00">LOCATIONS</text>
<text text-anchor="start" x="5" y="-346.6" font-family="Arial" font-size="8.00">PK</text>
<text text-anchor="start" x="23" y="-347.6" font-family="Arial" font-weight="bold" text-decoration="underline" font-size="8.00">location_id</text>
<text text-anchor="start" x="68" y="-347.6" font-family="Arial" font-style="italic" font-size="8.00" fill="#c0c0c0">number(4)</text>
<text text-anchor="start" x="8.5" y="-329.6" font-family="Arial" font-size="8.00"> </text>
<text text-anchor="start" x="23" y="-330.6" font-family="Arial" font-size="8.00">street_address</text>
<text text-anchor="start" x="79" y="-330.6" font-family="Arial" font-style="italic" font-size="8.00" fill="#c0c0c0">varchar2(40)</text>
<text text-anchor="start" x="8.5" y="-312.6" font-family="Arial" font-size="8.00"> </text>
<text text-anchor="start" x="23" y="-313.6" font-family="Arial" font-size="8.00">postal_code</text>
<text text-anchor="start" x="68" y="-313.6" font-family="Arial" font-style="italic" font-size="8.00" fill="#c0c0c0">varchar2(12)</text>
<text text-anchor="start" x="8.5" y="-295.6" font-family="Arial" font-size="8.00"> </text>
<text text-anchor="start" x="23" y="-296.6" font-family="Arial" font-weight="bold" font-size="8.00">city</text>
<text text-anchor="start" x="38" y="-296.6" font-family="Arial" font-style="italic" font-size="8.00" fill="#c0c0c0">varchar2(30)</text>
<text text-anchor="start" x="8.5" y="-278.6" font-family="Arial" font-size="8.00"> </text>
<text text-anchor="start" x="23" y="-279.6" font-family="Arial" font-size="8.00">state_province</text>
<text text-anchor="start" x="78" y="-279.6" font-family="Arial" font-style="italic" font-size="8.00" fill="#c0c0c0">varchar2(25)</text>
<text text-anchor="start" x="8.5" y="-261.6" font-family="Arial" font-size="8.00"> </text>
<text text-anchor="start" x="23" y="-262.6" font-family="Arial" font-size="8.00">country_id</text>
<text text-anchor="start" x="62" y="-262.6" font-family="Arial" font-style="italic" font-size="8.00" fill="#c0c0c0">char(2)</text>
<polygon fill="black" stroke="black" points="0,-357 0,-357 132,-357 132,-357 0,-357"/>
<polygon fill="black" stroke="black" points="19,-340 19,-357 19,-357 19,-340 19,-340"/>
<polygon fill="black" stroke="black" points="19,-323 19,-340 19,-340 19,-323 19,-323"/>
<polygon fill="black" stroke="black" points="19,-306 19,-323 19,-323 19,-306 19,-306"/>
<polygon fill="black" stroke="black" points="19,-289 19,-306 19,-306 19,-289 19,-289"/>
<polygon fill="black" stroke="black" points="19,-272 19,-289 19,-289 19,-272 19,-272"/>
<polygon fill="black" stroke="black" points="19,-254 19,-272 19,-272 19,-254 19,-254"/>
<polygon fill="none" stroke="black" points="0,-254.5 0,-375.5 132,-375.5 132,-254.5 0,-254.5"/>
</g>
<!-- LOCATIONS&#45;&#45;COUNTRIES -->
<g id="edge2" class="edge">
<title>LOCATIONS&#45;&#45;COUNTRIES</title>
<path fill="none" stroke="black" d="M66,-254.4C66,-229.37 66,-200.79 66,-177.69"/>
<polygon fill="black" stroke="black" points="69.5,-177.5 66,-167.5 62.5,-177.5 69.5,-177.5"/>
</g>
<!-- DEPARTMENTS -->
<g id="node4" class="node">
<title>DEPARTMENTS</title>
<polygon fill="#c0c0c0" stroke="transparent" points="110,-522.5 110,-539.5 261,-539.5 261,-522.5 110,-522.5"/>
<text text-anchor="start" x="155.5" y="-530.1" font-family="Arial" font-weight="bold" font-size="8.00">DEPARTMENTS</text>
<text text-anchor="start" x="114" y="-512.1" font-family="Arial" font-size="8.00">PK</text>
<text text-anchor="start" x="132" y="-513.1" font-family="Arial" font-weight="bold" text-decoration="underline" font-size="8.00">department_id</text>
<text text-anchor="start" x="193" y="-513.1" font-family="Arial" font-style="italic" font-size="8.00" fill="#c0c0c0">number(4)</text>
<text text-anchor="start" x="117.5" y="-495.1" font-family="Arial" font-size="8.00"> </text>
<text text-anchor="start" x="132" y="-496.1" font-family="Arial" font-weight="bold" font-size="8.00">department_name</text>
<text text-anchor="start" x="209" y="-496.1" font-family="Arial" font-style="italic" font-size="8.00" fill="#c0c0c0">varchar2(30)</text>
<text text-anchor="start" x="117.5" y="-478.1" font-family="Arial" font-size="8.00"> </text>
<text text-anchor="start" x="132" y="-479.1" font-family="Arial" font-size="8.00">manager_id</text>
<text text-anchor="start" x="175" y="-479.1" font-family="Arial" font-style="italic" font-size="8.00" fill="#c0c0c0">number(6)</text>
<text text-anchor="start" x="117.5" y="-461.1" font-family="Arial" font-size="8.00"> </text>
<text text-anchor="start" x="132" y="-462.1" font-family="Arial" font-size="8.00">location_id</text>
<text text-anchor="start" x="171" y="-462.1" font-family="Arial" font-style="italic" font-size="8.00" fill="#c0c0c0">number(4)</text>
<polygon fill="black" stroke="black" points="109,-522.5 109,-522.5 262,-522.5 262,-522.5 109,-522.5"/>
<polygon fill="black" stroke="black" points="128,-505.5 128,-522.5 128,-522.5 128,-505.5 128,-505.5"/>
<polygon fill="black" stroke="black" points="128,-488.5 128,-505.5 128,-505.5 128,-488.5 128,-488.5"/>
<polygon fill="black" stroke="black" points="128,-471.5 128,-488.5 128,-488.5 128,-471.5 128,-471.5"/>
<polygon fill="black" stroke="black" points="128,-453.5 128,-471.5 128,-471.5 128,-453.5 128,-453.5"/>
<polygon fill="none" stroke="black" points="108.5,-454 108.5,-541 261.5,-541 261.5,-454 108.5,-454"/>
</g>
<!-- DEPARTMENTS&#45;&#45;LOCATIONS -->
<g id="edge3" class="edge">
<title>DEPARTMENTS&#45;&#45;LOCATIONS</title>
<path fill="none" stroke="black" d="M156.8,-453.72C143.09,-432.93 126.28,-407.43 110.86,-384.05"/>
<polygon fill="black" stroke="black" points="113.68,-381.96 105.25,-375.54 107.84,-385.82 113.68,-381.96"/>
</g>
<!-- EMPLOYEES -->
<g id="node5" class="node">
<title>EMPLOYEES</title>
<polygon fill="#c0c0c0" stroke="transparent" points="151,-400 151,-417 281,-417 281,-400 151,-400"/>
<text text-anchor="start" x="191.5" y="-407.6" font-family="Arial" font-weight="bold" font-size="8.00">EMPLOYEES</text>
<text text-anchor="start" x="155" y="-389.6" font-family="Arial" font-size="8.00">PK</text>
<text text-anchor="start" x="173" y="-390.6" font-family="Arial" font-weight="bold" text-decoration="underline" font-size="8.00">employee_id</text>
<text text-anchor="start" x="227" y="-390.6" font-family="Arial" font-style="italic" font-size="8.00" fill="#c0c0c0">number(6)</text>
<text text-anchor="start" x="158.5" y="-372.6" font-family="Arial" font-size="8.00"> </text>
<text text-anchor="start" x="173" y="-373.6" font-family="Arial" font-size="8.00">first_name</text>
<text text-anchor="start" x="212" y="-373.6" font-family="Arial" font-style="italic" font-size="8.00" fill="#c0c0c0">varchar2(20)</text>
<text text-anchor="start" x="158.5" y="-355.6" font-family="Arial" font-size="8.00"> </text>
<text text-anchor="start" x="173" y="-356.6" font-family="Arial" font-weight="bold" font-size="8.00">last_name</text>
<text text-anchor="start" x="216" y="-356.6" font-family="Arial" font-style="italic" font-size="8.00" fill="#c0c0c0">varchar2(25)</text>
<text text-anchor="start" x="158.5" y="-338.6" font-family="Arial" font-size="8.00"> </text>
<text text-anchor="start" x="173" y="-339.6" font-family="Arial" font-weight="bold" font-size="8.00">email</text>
<text text-anchor="start" x="196" y="-339.6" font-family="Arial" font-style="italic" font-size="8.00" fill="#c0c0c0">varchar2(25)</text>
<text text-anchor="start" x="158.5" y="-321.6" font-family="Arial" font-size="8.00"> </text>
<text text-anchor="start" x="173" y="-322.6" font-family="Arial" font-size="8.00">phone_number</text>
<text text-anchor="start" x="228" y="-322.6" font-family="Arial" font-style="italic" font-size="8.00" fill="#c0c0c0">varchar2(20)</text>
<text text-anchor="start" x="158.5" y="-304.6" font-family="Arial" font-size="8.00"> </text>
<text text-anchor="start" x="173" y="-305.6" font-family="Arial" font-weight="bold" font-size="8.00">hire_date</text>
<text text-anchor="start" x="213" y="-305.6" font-family="Arial" font-style="italic" font-size="8.00" fill="#c0c0c0">date</text>
<text text-anchor="start" x="158.5" y="-287.6" font-family="Arial" font-size="8.00"> </text>
<text text-anchor="start" x="173" y="-288.6" font-family="Arial" font-weight="bold" font-size="8.00">job_id</text>
<text text-anchor="start" x="198" y="-288.6" font-family="Arial" font-style="italic" font-size="8.00" fill="#c0c0c0">varchar2(10)</text>
<text text-anchor="start" x="158.5" y="-270.6" font-family="Arial" font-size="8.00"> </text>
<text text-anchor="start" x="173" y="-271.6" font-family="Arial" font-size="8.00">salary</text>
<text text-anchor="start" x="196" y="-271.6" font-family="Arial" font-style="italic" font-size="8.00" fill="#c0c0c0">number(8,2)</text>
<text text-anchor="start" x="158.5" y="-253.6" font-family="Arial" font-size="8.00"> </text>
<text text-anchor="start" x="173" y="-254.6" font-family="Arial" font-size="8.00">commission_pct</text>
<text text-anchor="start" x="231" y="-254.6" font-family="Arial" font-style="italic" font-size="8.00" fill="#c0c0c0">number(2,2)</text>
<text text-anchor="start" x="158.5" y="-236.6" font-family="Arial" font-size="8.00"> </text>
<text text-anchor="start" x="173" y="-237.6" font-family="Arial" font-size="8.00">manager_id</text>
<text text-anchor="start" x="216" y="-237.6" font-family="Arial" font-style="italic" font-size="8.00" fill="#c0c0c0">number(6)</text>
<text text-anchor="start" x="158.5" y="-219.6" font-family="Arial" font-size="8.00"> </text>
<text text-anchor="start" x="173" y="-220.6" font-family="Arial" font-size="8.00">department_id</text>
<text text-anchor="start" x="225" y="-220.6" font-family="Arial" font-style="italic" font-size="8.00" fill="#c0c0c0">number(4)</text>
<polygon fill="black" stroke="black" points="150,-400 150,-400 282,-400 282,-400 150,-400"/>
<polygon fill="black" stroke="black" points="169,-383 169,-400 169,-400 169,-383 169,-383"/>
<polygon fill="black" stroke="black" points="169,-366 169,-383 169,-383 169,-366 169,-366"/>
<polygon fill="black" stroke="black" points="169,-349 169,-366 169,-366 169,-349 169,-349"/>
<polygon fill="black" stroke="black" points="169,-332 169,-349 169,-349 169,-332 169,-332"/>
<polygon fill="black" stroke="black" points="169,-315 169,-332 169,-332 169,-315 169,-315"/>
<polygon fill="black" stroke="black" points="169,-298 169,-315 169,-315 169,-298 169,-298"/>
<polygon fill="black" stroke="black" points="169,-281 169,-298 169,-298 169,-281 169,-281"/>
<polygon fill="black" stroke="black" points="169,-264 169,-281 169,-281 169,-264 169,-264"/>
<polygon fill="black" stroke="black" points="169,-247 169,-264 169,-264 169,-247 169,-247"/>
<polygon fill="black" stroke="black" points="169,-230 169,-247 169,-247 169,-230 169,-230"/>
<polygon fill="black" stroke="black" points="169,-212 169,-230 169,-230 169,-212 169,-212"/>
<polygon fill="none" stroke="black" points="150,-212 150,-418 282,-418 282,-212 150,-212"/>
</g>
<!-- DEPARTMENTS&#45;&#45;EMPLOYEES -->
<g id="edge7" class="edge">
<title>DEPARTMENTS&#45;&#45;EMPLOYEES</title>
<path fill="none" stroke="black" d="M186.51,-453.72C187.53,-445.85 188.75,-437.29 190.12,-428.44"/>
<polygon fill="black" stroke="black" points="193.62,-428.76 191.73,-418.33 186.7,-427.66 193.62,-428.76"/>
</g>
<!-- EMPLOYEES&#45;&#45;DEPARTMENTS -->
<g id="edge4" class="edge">
<title>EMPLOYEES&#45;&#45;DEPARTMENTS</title>
<path fill="none" stroke="black" d="M205.12,-418.33C203.54,-427.07 201.9,-435.66 200.26,-443.76"/>
<polygon fill="black" stroke="black" points="196.8,-443.22 198.19,-453.72 203.65,-444.65 196.8,-443.22"/>
</g>
<!-- EMPLOYEES&#45;&#45;EMPLOYEES -->
<g id="edge6" class="edge">
<title>EMPLOYEES&#45;&#45;EMPLOYEES</title>
<path fill="none" stroke="black" d="M282.2,-346.43C292.77,-341.83 300,-331.35 300,-315 300,-303.5 296.42,-294.91 290.63,-289.22"/>
<polygon fill="black" stroke="black" points="292.46,-286.24 282.2,-283.57 288.56,-292.05 292.46,-286.24"/>
</g>
<!-- JOBS -->
<g id="node6" class="node">
<title>JOBS</title>
<polygon fill="#c0c0c0" stroke="transparent" points="218,-157.5 218,-174.5 327,-174.5 327,-157.5 218,-157.5"/>
<text text-anchor="start" x="261.5" y="-165.1" font-family="Arial" font-weight="bold" font-size="8.00">JOBS</text>
<text text-anchor="start" x="222" y="-147.1" font-family="Arial" font-size="8.00">PK</text>
<text text-anchor="start" x="240" y="-148.1" font-family="Arial" font-weight="bold" text-decoration="underline" font-size="8.00">job_id</text>
<text text-anchor="start" x="265" y="-148.1" font-family="Arial" font-style="italic" font-size="8.00" fill="#c0c0c0">varchar2(10)</text>
<text text-anchor="start" x="225.5" y="-130.1" font-family="Arial" font-size="8.00"> </text>
<text text-anchor="start" x="240" y="-131.1" font-family="Arial" font-weight="bold" font-size="8.00">job_title</text>
<text text-anchor="start" x="274" y="-131.1" font-family="Arial" font-style="italic" font-size="8.00" fill="#c0c0c0">varchar2(35)</text>
<text text-anchor="start" x="225.5" y="-113.1" font-family="Arial" font-size="8.00"> </text>
<text text-anchor="start" x="240" y="-114.1" font-family="Arial" font-size="8.00">min_salary</text>
<text text-anchor="start" x="280" y="-114.1" font-family="Arial" font-style="italic" font-size="8.00" fill="#c0c0c0">number(6)</text>
<text text-anchor="start" x="225.5" y="-96.1" font-family="Arial" font-size="8.00"> </text>
<text text-anchor="start" x="240" y="-97.1" font-family="Arial" font-size="8.00">max_salary</text>
<text text-anchor="start" x="283" y="-97.1" font-family="Arial" font-style="italic" font-size="8.00" fill="#c0c0c0">number(6)</text>
<polygon fill="black" stroke="black" points="217,-157.5 217,-157.5 328,-157.5 328,-157.5 217,-157.5"/>
<polygon fill="black" stroke="black" points="236,-140.5 236,-157.5 236,-157.5 236,-140.5 236,-140.5"/>
<polygon fill="black" stroke="black" points="236,-123.5 236,-140.5 236,-140.5 236,-123.5 236,-123.5"/>
<polygon fill="black" stroke="black" points="236,-106.5 236,-123.5 236,-123.5 236,-106.5 236,-106.5"/>
<polygon fill="black" stroke="black" points="236,-88.5 236,-106.5 236,-106.5 236,-88.5 236,-88.5"/>
<polygon fill="none" stroke="black" points="216.5,-89 216.5,-176 327.5,-176 327.5,-89 216.5,-89"/>
</g>
<!-- EMPLOYEES&#45;&#45;JOBS -->
<g id="edge5" class="edge">
<title>EMPLOYEES&#45;&#45;JOBS</title>
<path fill="none" stroke="black" d="M247.68,-211.88C250.46,-202.92 253.19,-194.12 255.76,-185.84"/>
<polygon fill="black" stroke="black" points="259.19,-186.61 258.81,-176.02 252.5,-184.54 259.19,-186.61"/>
</g>
<!-- JOB_HISTORY -->
<g id="node7" class="node">
<title>JOB_HISTORY</title>
<polygon fill="#c0c0c0" stroke="transparent" points="230,-663 230,-680 350,-680 350,-663 230,-663"/>
<text text-anchor="start" x="262.5" y="-670.6" font-family="Arial" font-weight="bold" font-size="8.00">JOB_HISTORY</text>
<text text-anchor="start" x="234" y="-652.6" font-family="Arial" font-size="8.00">PK</text>
<text text-anchor="start" x="252" y="-653.6" font-family="Arial" font-weight="bold" text-decoration="underline" font-size="8.00">employee_id</text>
<text text-anchor="start" x="306" y="-653.6" font-family="Arial" font-style="italic" font-size="8.00" fill="#c0c0c0">number(6)</text>
<text text-anchor="start" x="234" y="-635.6" font-family="Arial" font-size="8.00">PK</text>
<text text-anchor="start" x="252" y="-636.6" font-family="Arial" font-weight="bold" text-decoration="underline" font-size="8.00">start_date</text>
<text text-anchor="start" x="295" y="-636.6" font-family="Arial" font-style="italic" font-size="8.00" fill="#c0c0c0">date</text>
<text text-anchor="start" x="237.5" y="-618.6" font-family="Arial" font-size="8.00"> </text>
<text text-anchor="start" x="252" y="-619.6" font-family="Arial" font-weight="bold" font-size="8.00">end_date</text>
<text text-anchor="start" x="291" y="-619.6" font-family="Arial" font-style="italic" font-size="8.00" fill="#c0c0c0">date</text>
<text text-anchor="start" x="237.5" y="-601.6" font-family="Arial" font-size="8.00"> </text>
<text text-anchor="start" x="252" y="-602.6" font-family="Arial" font-weight="bold" font-size="8.00">job_id</text>
<text text-anchor="start" x="277" y="-602.6" font-family="Arial" font-style="italic" font-size="8.00" fill="#c0c0c0">varchar2(10)</text>
<text text-anchor="start" x="237.5" y="-584.6" font-family="Arial" font-size="8.00"> </text>
<text text-anchor="start" x="252" y="-585.6" font-family="Arial" font-size="8.00">department_id</text>
<text text-anchor="start" x="304" y="-585.6" font-family="Arial" font-style="italic" font-size="8.00" fill="#c0c0c0">number(4)</text>
<polygon fill="black" stroke="black" points="229,-663 229,-663 351,-663 351,-663 229,-663"/>
<polygon fill="black" stroke="black" points="248,-646 248,-663 248,-663 248,-646 248,-646"/>
<polygon fill="black" stroke="black" points="248,-629 248,-646 248,-646 248,-629 248,-629"/>
<polygon fill="black" stroke="black" points="248,-612 248,-629 248,-629 248,-612 248,-612"/>
<polygon fill="black" stroke="black" points="248,-595 248,-612 248,-612 248,-595 248,-595"/>
<polygon fill="black" stroke="black" points="248,-577 248,-595 248,-595 248,-577 248,-577"/>
<polygon fill="none" stroke="black" points="229,-577 229,-681 351,-681 351,-577 229,-577"/>
</g>
<!-- JOB_HISTORY&#45;&#45;DEPARTMENTS -->
<g id="edge10" class="edge">
<title>JOB_HISTORY&#45;&#45;DEPARTMENTS</title>
<path fill="none" stroke="black" d="M248.5,-576.82C241.14,-567.74 233.48,-558.29 226.13,-549.23"/>
<polygon fill="black" stroke="black" points="228.78,-546.94 219.77,-541.38 223.35,-551.35 228.78,-546.94"/>
</g>
<!-- JOB_HISTORY&#45;&#45;EMPLOYEES -->
<g id="edge9" class="edge">
<title>JOB_HISTORY&#45;&#45;EMPLOYEES</title>
<path fill="none" stroke="black" d="M288.04,-576.73C285.83,-541.73 281.09,-494.55 271,-454 268.85,-445.36 266.28,-436.54 263.44,-427.75"/>
<polygon fill="black" stroke="black" points="266.75,-426.61 260.26,-418.23 260.11,-428.83 266.75,-426.61"/>
</g>
<!-- JOB_HISTORY&#45;&#45;JOBS -->
<g id="edge8" class="edge">
<title>JOB_HISTORY&#45;&#45;JOBS</title>
<path fill="none" stroke="black" d="M300.87,-576.98C315.83,-497.78 337.86,-340.93 309,-212 307.02,-203.15 303.92,-194.11 300.34,-185.48"/>
<polygon fill="black" stroke="black" points="303.53,-184.03 296.3,-176.29 297.12,-186.85 303.53,-184.03"/>
</g>
</g>
</svg>
