<?xml version="1.0" encoding="UTF-8" standalone="no"?>
<!DOCTYPE svg PUBLIC "-//W3C//DTD SVG 1.1//EN"
 "http://www.w3.org/Graphics/SVG/1.1/DTD/svg11.dtd">
<!-- Generated by graphviz version 3.0.0 (20220226.1711)
 -->
<!-- Title: TabGraph Pages: 1 -->
<svg width="705pt" height="664pt"
 viewBox="0.00 0.00 704.50 664.00" xmlns="http://www.w3.org/2000/svg" xmlns:xlink="http://www.w3.org/1999/xlink">
<g id="graph0" class="graph" transform="scale(1 1) rotate(0) translate(4 660)">
<title>TabGraph</title>
<polygon fill="white" stroke="transparent" points="-4,4 -4,-660 700.5,-660 700.5,4 -4,4"/>
<!-- ORDERS -->
<g id="node1" class="node">
<title>ORDERS</title>
<polygon fill="#c0c0c0" stroke="transparent" points="1,-472 1,-489 197,-489 197,-472 1,-472"/>
<text text-anchor="start" x="83" y="-479.6" font-family="Arial" font-weight="bold" font-size="8.00">ORDERS</text>
<text text-anchor="start" x="5" y="-461.6" font-family="Arial" font-size="8.00">PK</text>
<text text-anchor="start" x="23" y="-462.6" font-family="Arial" font-weight="bold" text-decoration="underline" font-size="8.00">order_id</text>
<text text-anchor="start" x="59" y="-462.6" font-family="Arial" font-style="italic" font-size="8.00" fill="#c0c0c0">number(12)</text>
<text text-anchor="start" x="8.5" y="-444.6" font-family="Arial" font-size="8.00"> </text>
<text text-anchor="start" x="23" y="-445.6" font-family="Arial" font-weight="bold" font-size="8.00">order_date</text>
<text text-anchor="start" x="69" y="-445.6" font-family="Arial" font-style="italic" font-size="8.00" fill="#c0c0c0">timestamp(6) with local time zone</text>
<text text-anchor="start" x="8.5" y="-427.6" font-family="Arial" font-size="8.00"> </text>
<text text-anchor="start" x="23" y="-428.6" font-family="Arial" font-size="8.00">order_mode</text>
<text text-anchor="start" x="67" y="-428.6" font-family="Arial" font-style="italic" font-size="8.00" fill="#c0c0c0">varchar2(8)</text>
<text text-anchor="start" x="8.5" y="-410.6" font-family="Arial" font-size="8.00"> </text>
<text text-anchor="start" x="23" y="-411.6" font-family="Arial" font-weight="bold" font-size="8.00">customer_id</text>
<text text-anchor="start" x="76" y="-411.6" font-family="Arial" font-style="italic" font-size="8.00" fill="#c0c0c0">number(6)</text>
<text text-anchor="start" x="8.5" y="-393.6" font-family="Arial" font-size="8.00"> </text>
<text text-anchor="start" x="23" y="-394.6" font-family="Arial" font-size="8.00">order_status</text>
<text text-anchor="start" x="70" y="-394.6" font-family="Arial" font-style="italic" font-size="8.00" fill="#c0c0c0">number(2)</text>
<text text-anchor="start" x="8.5" y="-376.6" font-family="Arial" font-size="8.00"> </text>
<text text-anchor="start" x="23" y="-377.6" font-family="Arial" font-size="8.00">order_total</text>
<text text-anchor="start" x="63" y="-377.6" font-family="Arial" font-style="italic" font-size="8.00" fill="#c0c0c0">number(8,2)</text>
<text text-anchor="start" x="8.5" y="-359.6" font-family="Arial" font-size="8.00"> </text>
<text text-anchor="start" x="23" y="-360.6" font-family="Arial" font-size="8.00">sales_rep_id</text>
<text text-anchor="start" x="70" y="-360.6" font-family="Arial" font-style="italic" font-size="8.00" fill="#c0c0c0">number(6)</text>
<text text-anchor="start" x="8.5" y="-342.6" font-family="Arial" font-size="8.00"> </text>
<text text-anchor="start" x="23" y="-343.6" font-family="Arial" font-size="8.00">promotion_id</text>
<text text-anchor="start" x="69" y="-343.6" font-family="Arial" font-style="italic" font-size="8.00" fill="#c0c0c0">number(6)</text>
<polygon fill="black" stroke="black" points="0,-472 0,-472 198,-472 198,-472 0,-472"/>
<polygon fill="black" stroke="black" points="19,-455 19,-472 19,-472 19,-455 19,-455"/>
<polygon fill="black" stroke="black" points="19,-438 19,-455 19,-455 19,-438 19,-438"/>
<polygon fill="black" stroke="black" points="19,-421 19,-438 19,-438 19,-421 19,-421"/>
<polygon fill="black" stroke="black" points="19,-404 19,-421 19,-421 19,-404 19,-404"/>
<polygon fill="black" stroke="black" points="19,-387 19,-404 19,-404 19,-387 19,-387"/>
<polygon fill="black" stroke="black" points="19,-370 19,-387 19,-387 19,-370 19,-370"/>
<polygon fill="black" stroke="black" points="19,-353 19,-370 19,-370 19,-353 19,-353"/>
<polygon fill="black" stroke="black" points="19,-335 19,-353 19,-353 19,-335 19,-335"/>
<polygon fill="none" stroke="black" points="0,-335.5 0,-490.5 198,-490.5 198,-335.5 0,-335.5"/>
</g>
<!-- CUSTOMERS -->
<g id="node2" class="node">
<title>CUSTOMERS</title>
<polygon fill="#c0c0c0" stroke="transparent" points="27,-256 27,-273 172,-273 172,-256 27,-256"/>
<text text-anchor="start" x="74" y="-263.6" font-family="Arial" font-weight="bold" font-size="8.00">CUSTOMERS</text>
<text text-anchor="start" x="31" y="-245.6" font-family="Arial" font-size="8.00">PK</text>
<text text-anchor="start" x="49" y="-246.6" font-family="Arial" font-weight="bold" text-decoration="underline" font-size="8.00">customer_id</text>
<text text-anchor="start" x="102" y="-246.6" font-family="Arial" font-style="italic" font-size="8.00" fill="#c0c0c0">number(6)</text>
<text text-anchor="start" x="34.5" y="-228.6" font-family="Arial" font-size="8.00"> </text>
<text text-anchor="start" x="49" y="-229.6" font-family="Arial" font-weight="bold" font-size="8.00">cust_first_name</text>
<text text-anchor="start" x="117" y="-229.6" font-family="Arial" font-style="italic" font-size="8.00" fill="#c0c0c0">varchar2(20)</text>
<text text-anchor="start" x="34.5" y="-211.6" font-family="Arial" font-size="8.00"> </text>
<text text-anchor="start" x="49" y="-212.6" font-family="Arial" font-weight="bold" font-size="8.00">cust_last_name</text>
<text text-anchor="start" x="115" y="-212.6" font-family="Arial" font-style="italic" font-size="8.00" fill="#c0c0c0">varchar2(20)</text>
<text text-anchor="start" x="34.5" y="-194.6" font-family="Arial" font-size="8.00"> </text>
<text text-anchor="start" x="49" y="-195.6" font-family="Arial" font-size="8.00">cust_address</text>
<text text-anchor="start" x="100" y="-195.6" font-family="Arial" font-style="italic" font-size="8.00" fill="#c0c0c0">cust_address_typ</text>
<text text-anchor="start" x="34.5" y="-177.6" font-family="Arial" font-size="8.00"> </text>
<text text-anchor="start" x="49" y="-178.6" font-family="Arial" font-size="8.00">phone_numbers</text>
<text text-anchor="start" x="108" y="-178.6" font-family="Arial" font-style="italic" font-size="8.00" fill="#c0c0c0">phone_list_typ</text>
<text text-anchor="start" x="34.5" y="-160.6" font-family="Arial" font-size="8.00"> </text>
<text text-anchor="start" x="49" y="-161.6" font-family="Arial" font-size="8.00">nls_language</text>
<text text-anchor="start" x="98" y="-161.6" font-family="Arial" font-style="italic" font-size="8.00" fill="#c0c0c0">varchar2(3)</text>
<text text-anchor="start" x="34.5" y="-143.6" font-family="Arial" font-size="8.00"> </text>
<text text-anchor="start" x="49" y="-144.6" font-family="Arial" font-size="8.00">nls_territory</text>
<text text-anchor="start" x="93" y="-144.6" font-family="Arial" font-style="italic" font-size="8.00" fill="#c0c0c0">varchar2(30)</text>
<text text-anchor="start" x="34.5" y="-126.6" font-family="Arial" font-size="8.00"> </text>
<text text-anchor="start" x="49" y="-127.6" font-family="Arial" font-size="8.00">credit_limit</text>
<text text-anchor="start" x="87" y="-127.6" font-family="Arial" font-style="italic" font-size="8.00" fill="#c0c0c0">number(9,2)</text>
<text text-anchor="start" x="34.5" y="-109.6" font-family="Arial" font-size="8.00"> </text>
<text text-anchor="start" x="49" y="-110.6" font-family="Arial" font-size="8.00">cust_email</text>
<text text-anchor="start" x="88" y="-110.6" font-family="Arial" font-style="italic" font-size="8.00" fill="#c0c0c0">varchar2(40)</text>
<text text-anchor="start" x="34.5" y="-92.6" font-family="Arial" font-size="8.00"> </text>
<text text-anchor="start" x="49" y="-93.6" font-family="Arial" font-size="8.00">account_mgr_id</text>
<text text-anchor="start" x="107" y="-93.6" font-family="Arial" font-style="italic" font-size="8.00" fill="#c0c0c0">number(6)</text>
<text text-anchor="start" x="34.5" y="-75.6" font-family="Arial" font-size="8.00"> </text>
<text text-anchor="start" x="49" y="-76.6" font-family="Arial" font-size="8.00">cust_geo_location</text>
<text text-anchor="start" x="116" y="-76.6" font-family="Arial" font-style="italic" font-size="8.00" fill="#c0c0c0">sdo_geometry</text>
<text text-anchor="start" x="34.5" y="-58.6" font-family="Arial" font-size="8.00"> </text>
<text text-anchor="start" x="49" y="-59.6" font-family="Arial" font-size="8.00">date_of_birth</text>
<text text-anchor="start" x="98" y="-59.6" font-family="Arial" font-style="italic" font-size="8.00" fill="#c0c0c0">date</text>
<text text-anchor="start" x="34.5" y="-41.6" font-family="Arial" font-size="8.00"> </text>
<text text-anchor="start" x="49" y="-42.6" font-family="Arial" font-size="8.00">marital_status</text>
<text text-anchor="start" x="100" y="-42.6" font-family="Arial" font-style="italic" font-size="8.00" fill="#c0c0c0">varchar2(20)</text>
<text text-anchor="start" x="34.5" y="-24.6" font-family="Arial" font-size="8.00"> </text>
<text text-anchor="start" x="49" y="-25.6" font-family="Arial" font-size="8.00">gender</text>
<text text-anchor="start" x="75" y="-25.6" font-family="Arial" font-style="italic" font-size="8.00" fill="#c0c0c0">varchar2(1)</text>
<text text-anchor="start" x="34.5" y="-7.6" font-family="Arial" font-size="8.00"> </text>
<text text-anchor="start" x="49" y="-8.6" font-family="Arial" font-size="8.00">income_level</text>
<text text-anchor="start" x="96" y="-8.6" font-family="Arial" font-style="italic" font-size="8.00" fill="#c0c0c0">varchar2(20)</text>
<polygon fill="black" stroke="black" points="26,-256 26,-256 173,-256 173,-256 26,-256"/>
<polygon fill="black" stroke="black" points="45,-239 45,-256 45,-256 45,-239 45,-239"/>
<polygon fill="black" stroke="black" points="45,-222 45,-239 45,-239 45,-222 45,-222"/>
<polygon fill="black" stroke="black" points="45,-205 45,-222 45,-222 45,-205 45,-205"/>
<polygon fill="black" stroke="black" points="45,-188 45,-205 45,-205 45,-188 45,-188"/>
<polygon fill="black" stroke="black" points="45,-171 45,-188 45,-188 45,-171 45,-171"/>
<polygon fill="black" stroke="black" points="45,-154 45,-171 45,-171 45,-154 45,-154"/>
<polygon fill="black" stroke="black" points="45,-137 45,-154 45,-154 45,-137 45,-137"/>
<polygon fill="black" stroke="black" points="45,-120 45,-137 45,-137 45,-120 45,-120"/>
<polygon fill="black" stroke="black" points="45,-103 45,-120 45,-120 45,-103 45,-103"/>
<polygon fill="black" stroke="black" points="45,-86 45,-103 45,-103 45,-86 45,-86"/>
<polygon fill="black" stroke="black" points="45,-69 45,-86 45,-86 45,-69 45,-69"/>
<polygon fill="black" stroke="black" points="45,-52 45,-69 45,-69 45,-52 45,-52"/>
<polygon fill="black" stroke="black" points="45,-35 45,-52 45,-52 45,-35 45,-35"/>
<polygon fill="black" stroke="black" points="45,-18 45,-35 45,-35 45,-18 45,-18"/>
<polygon fill="black" stroke="black" points="45,0 45,-18 45,-18 45,0 45,0"/>
<polygon fill="none" stroke="black" points="25.5,0 25.5,-274 172.5,-274 172.5,0 25.5,0"/>
</g>
<!-- ORDERS&#45;&#45;CUSTOMERS -->
<g id="edge1" class="edge">
<title>ORDERS&#45;&#45;CUSTOMERS</title>
<path fill="none" stroke="black" d="M99,-335.31C99,-319.36 99,-302.05 99,-284.54"/>
<polygon fill="black" stroke="black" points="102.5,-284.21 99,-274.21 95.5,-284.21 102.5,-284.21"/>
</g>
<!-- INVENTORIES -->
<g id="node3" class="node">
<title>INVENTORIES</title>
<polygon fill="#c0c0c0" stroke="transparent" points="416,-621 416,-638 555,-638 555,-621 416,-621"/>
<text text-anchor="start" x="459.5" y="-628.6" font-family="Arial" font-weight="bold" font-size="8.00">INVENTORIES</text>
<text text-anchor="start" x="420" y="-610.6" font-family="Arial" font-size="8.00">PK</text>
<text text-anchor="start" x="438" y="-611.6" font-family="Arial" font-weight="bold" text-decoration="underline" font-size="8.00">product_id</text>
<text text-anchor="start" x="483" y="-611.6" font-family="Arial" font-style="italic" font-size="8.00" fill="#c0c0c0">number(6)</text>
<text text-anchor="start" x="420" y="-593.6" font-family="Arial" font-size="8.00">PK</text>
<text text-anchor="start" x="438" y="-594.6" font-family="Arial" font-weight="bold" text-decoration="underline" font-size="8.00">warehouse_id</text>
<text text-anchor="start" x="498" y="-594.6" font-family="Arial" font-style="italic" font-size="8.00" fill="#c0c0c0">number(3)</text>
<text text-anchor="start" x="423.5" y="-576.6" font-family="Arial" font-size="8.00"> </text>
<text text-anchor="start" x="438" y="-577.6" font-family="Arial" font-weight="bold" font-size="8.00">quantity_on_hand</text>
<text text-anchor="start" x="511" y="-577.6" font-family="Arial" font-style="italic" font-size="8.00" fill="#c0c0c0">number(8)</text>
<polygon fill="black" stroke="black" points="415,-621 415,-621 556,-621 556,-621 415,-621"/>
<polygon fill="black" stroke="black" points="434,-604 434,-621 434,-621 434,-604 434,-604"/>
<polygon fill="black" stroke="black" points="434,-587 434,-604 434,-604 434,-587 434,-587"/>
<polygon fill="black" stroke="black" points="434,-569 434,-587 434,-587 434,-569 434,-569"/>
<polygon fill="none" stroke="black" points="414.5,-569 414.5,-639 555.5,-639 555.5,-569 414.5,-569"/>
</g>
<!-- WAREHOUSES -->
<g id="node4" class="node">
<title>WAREHOUSES</title>
<polygon fill="#c0c0c0" stroke="transparent" points="415,-447 415,-464 556,-464 556,-447 415,-447"/>
<text text-anchor="start" x="458" y="-454.6" font-family="Arial" font-weight="bold" font-size="8.00">WAREHOUSES</text>
<text text-anchor="start" x="419" y="-436.6" font-family="Arial" font-size="8.00">PK</text>
<text text-anchor="start" x="437" y="-437.6" font-family="Arial" font-weight="bold" text-decoration="underline" font-size="8.00">warehouse_id</text>
<text text-anchor="start" x="497" y="-437.6" font-family="Arial" font-style="italic" font-size="8.00" fill="#c0c0c0">number(3)</text>
<text text-anchor="start" x="422.5" y="-419.6" font-family="Arial" font-size="8.00"> </text>
<text text-anchor="start" x="437" y="-420.6" font-family="Arial" font-size="8.00">warehouse_spec</text>
<text text-anchor="start" x="502" y="-420.6" font-family="Arial" font-style="italic" font-size="8.00" fill="#c0c0c0">xmltype</text>
<text text-anchor="start" x="422.5" y="-402.6" font-family="Arial" font-size="8.00"> </text>
<text text-anchor="start" x="437" y="-403.6" font-family="Arial" font-size="8.00">warehouse_name</text>
<text text-anchor="start" x="504" y="-403.6" font-family="Arial" font-style="italic" font-size="8.00" fill="#c0c0c0">varchar2(35)</text>
<text text-anchor="start" x="422.5" y="-385.6" font-family="Arial" font-size="8.00"> </text>
<text text-anchor="start" x="437" y="-386.6" font-family="Arial" font-size="8.00">location_id</text>
<text text-anchor="start" x="476" y="-386.6" font-family="Arial" font-style="italic" font-size="8.00" fill="#c0c0c0">number(4)</text>
<text text-anchor="start" x="422.5" y="-368.6" font-family="Arial" font-size="8.00"> </text>
<text text-anchor="start" x="437" y="-369.6" font-family="Arial" font-size="8.00">wh_geo_location</text>
<text text-anchor="start" x="500" y="-369.6" font-family="Arial" font-style="italic" font-size="8.00" fill="#c0c0c0">sdo_geometry</text>
<polygon fill="black" stroke="black" points="414,-447 414,-447 557,-447 557,-447 414,-447"/>
<polygon fill="black" stroke="black" points="433,-430 433,-447 433,-447 433,-430 433,-430"/>
<polygon fill="black" stroke="black" points="433,-413 433,-430 433,-430 433,-413 433,-413"/>
<polygon fill="black" stroke="black" points="433,-396 433,-413 433,-413 433,-396 433,-396"/>
<polygon fill="black" stroke="black" points="433,-379 433,-396 433,-396 433,-379 433,-379"/>
<polygon fill="black" stroke="black" points="433,-361 433,-379 433,-379 433,-361 433,-361"/>
<polygon fill="none" stroke="black" points="413.5,-361 413.5,-465 556.5,-465 556.5,-361 413.5,-361"/>
</g>
<!-- INVENTORIES&#45;&#45;WAREHOUSES -->
<g id="edge2" class="edge">
<title>INVENTORIES&#45;&#45;WAREHOUSES</title>
<path fill="none" stroke="black" d="M485,-568.77C485,-542.78 485,-506.34 485,-475.35"/>
<polygon fill="black" stroke="black" points="488.5,-475.07 485,-465.07 481.5,-475.07 488.5,-475.07"/>
</g>
<!-- PRODUCT_INFORMATION -->
<g id="node5" class="node">
<title>PRODUCT_INFORMATION</title>
<polygon fill="#c0c0c0" stroke="transparent" points="218,-498 218,-515 395,-515 395,-498 218,-498"/>
<text text-anchor="start" x="257" y="-505.6" font-family="Arial" font-weight="bold" font-size="8.00">PRODUCT_INFORMATION</text>
<text text-anchor="start" x="222" y="-487.6" font-family="Arial" font-size="8.00">PK</text>
<text text-anchor="start" x="240" y="-488.6" font-family="Arial" font-weight="bold" text-decoration="underline" font-size="8.00">product_id</text>
<text text-anchor="start" x="285" y="-488.6" font-family="Arial" font-style="italic" font-size="8.00" fill="#c0c0c0">number(6)</text>
<text text-anchor="start" x="225.5" y="-470.6" font-family="Arial" font-size="8.00"> </text>
<text text-anchor="start" x="240" y="-471.6" font-family="Arial" font-size="8.00">product_name</text>
<text text-anchor="start" x="292" y="-471.6" font-family="Arial" font-style="italic" font-size="8.00" fill="#c0c0c0">varchar2(50)</text>
<text text-anchor="start" x="225.5" y="-453.6" font-family="Arial" font-size="8.00"> </text>
<text text-anchor="start" x="240" y="-454.6" font-family="Arial" font-size="8.00">product_description</text>
<text text-anchor="start" x="313" y="-454.6" font-family="Arial" font-style="italic" font-size="8.00" fill="#c0c0c0">varchar2(2000)</text>
<text text-anchor="start" x="225.5" y="-436.6" font-family="Arial" font-size="8.00"> </text>
<text text-anchor="start" x="240" y="-437.6" font-family="Arial" font-size="8.00">category_id</text>
<text text-anchor="start" x="283" y="-437.6" font-family="Arial" font-style="italic" font-size="8.00" fill="#c0c0c0">number(2)</text>
<text text-anchor="start" x="225.5" y="-419.6" font-family="Arial" font-size="8.00"> </text>
<text text-anchor="start" x="240" y="-420.6" font-family="Arial" font-size="8.00">weight_class</text>
<text text-anchor="start" x="289" y="-420.6" font-family="Arial" font-style="italic" font-size="8.00" fill="#c0c0c0">number(1)</text>
<text text-anchor="start" x="225.5" y="-402.6" font-family="Arial" font-size="8.00"> </text>
<text text-anchor="start" x="240" y="-403.6" font-family="Arial" font-size="8.00">warranty_period</text>
<text text-anchor="start" x="301" y="-403.6" font-family="Arial" font-style="italic" font-size="8.00" fill="#c0c0c0">interval year(2) to month</text>
<text text-anchor="start" x="225.5" y="-385.6" font-family="Arial" font-size="8.00"> </text>
<text text-anchor="start" x="240" y="-386.6" font-family="Arial" font-size="8.00">supplier_id</text>
<text text-anchor="start" x="280" y="-386.6" font-family="Arial" font-style="italic" font-size="8.00" fill="#c0c0c0">number(6)</text>
<text text-anchor="start" x="225.5" y="-368.6" font-family="Arial" font-size="8.00"> </text>
<text text-anchor="start" x="240" y="-369.6" font-family="Arial" font-size="8.00">product_status</text>
<text text-anchor="start" x="295" y="-369.6" font-family="Arial" font-style="italic" font-size="8.00" fill="#c0c0c0">varchar2(20)</text>
<text text-anchor="start" x="225.5" y="-351.6" font-family="Arial" font-size="8.00"> </text>
<text text-anchor="start" x="240" y="-352.6" font-family="Arial" font-size="8.00">list_price</text>
<text text-anchor="start" x="273" y="-352.6" font-family="Arial" font-style="italic" font-size="8.00" fill="#c0c0c0">number(8,2)</text>
<text text-anchor="start" x="225.5" y="-334.6" font-family="Arial" font-size="8.00"> </text>
<text text-anchor="start" x="240" y="-335.6" font-family="Arial" font-size="8.00">min_price</text>
<text text-anchor="start" x="275" y="-335.6" font-family="Arial" font-style="italic" font-size="8.00" fill="#c0c0c0">number(8,2)</text>
<text text-anchor="start" x="225.5" y="-317.6" font-family="Arial" font-size="8.00"> </text>
<text text-anchor="start" x="240" y="-318.6" font-family="Arial" font-size="8.00">catalog_url</text>
<text text-anchor="start" x="280" y="-318.6" font-family="Arial" font-style="italic" font-size="8.00" fill="#c0c0c0">varchar2(50)</text>
<polygon fill="black" stroke="black" points="217,-498 217,-498 396,-498 396,-498 217,-498"/>
<polygon fill="black" stroke="black" points="236,-481 236,-498 236,-498 236,-481 236,-481"/>
<polygon fill="black" stroke="black" points="236,-464 236,-481 236,-481 236,-464 236,-464"/>
<polygon fill="black" stroke="black" points="236,-447 236,-464 236,-464 236,-447 236,-447"/>
<polygon fill="black" stroke="black" points="236,-430 236,-447 236,-447 236,-430 236,-430"/>
<polygon fill="black" stroke="black" points="236,-413 236,-430 236,-430 236,-413 236,-413"/>
<polygon fill="black" stroke="black" points="236,-396 236,-413 236,-413 236,-396 236,-396"/>
<polygon fill="black" stroke="black" points="236,-379 236,-396 236,-396 236,-379 236,-379"/>
<polygon fill="black" stroke="black" points="236,-362 236,-379 236,-379 236,-362 236,-362"/>
<polygon fill="black" stroke="black" points="236,-345 236,-362 236,-362 236,-345 236,-345"/>
<polygon fill="black" stroke="black" points="236,-328 236,-345 236,-345 236,-328 236,-328"/>
<polygon fill="black" stroke="black" points="236,-310 236,-328 236,-328 236,-310 236,-310"/>
<polygon fill="none" stroke="black" points="216.5,-310 216.5,-516 395.5,-516 395.5,-310 216.5,-310"/>
</g>
<!-- INVENTORIES&#45;&#45;PRODUCT_INFORMATION -->
<g id="edge3" class="edge">
<title>INVENTORIES&#45;&#45;PRODUCT_INFORMATION</title>
<path fill="none" stroke="black" d="M452.58,-568.77C438.29,-553.68 420.66,-535.07 402.65,-516.05"/>
<polygon fill="black" stroke="black" points="405.15,-513.6 395.73,-508.74 400.06,-518.41 405.15,-513.6"/>
</g>
<!-- ORDER_ITEMS -->
<g id="node6" class="node">
<title>ORDER_ITEMS</title>
<polygon fill="#c0c0c0" stroke="transparent" points="60,-638 60,-655 177,-655 177,-638 60,-638"/>
<text text-anchor="start" x="90.5" y="-645.6" font-family="Arial" font-weight="bold" font-size="8.00">ORDER_ITEMS</text>
<text text-anchor="start" x="64" y="-627.6" font-family="Arial" font-size="8.00">PK</text>
<text text-anchor="start" x="82" y="-628.6" font-family="Arial" font-weight="bold" text-decoration="underline" font-size="8.00">order_id</text>
<text text-anchor="start" x="118" y="-628.6" font-family="Arial" font-style="italic" font-size="8.00" fill="#c0c0c0">number(12)</text>
<text text-anchor="start" x="64" y="-610.6" font-family="Arial" font-size="8.00">PK</text>
<text text-anchor="start" x="82" y="-611.6" font-family="Arial" font-weight="bold" text-decoration="underline" font-size="8.00">line_item_id</text>
<text text-anchor="start" x="133" y="-611.6" font-family="Arial" font-style="italic" font-size="8.00" fill="#c0c0c0">number(3)</text>
<text text-anchor="start" x="67.5" y="-593.6" font-family="Arial" font-size="8.00"> </text>
<text text-anchor="start" x="82" y="-594.6" font-family="Arial" font-weight="bold" font-size="8.00">product_id</text>
<text text-anchor="start" x="127" y="-594.6" font-family="Arial" font-style="italic" font-size="8.00" fill="#c0c0c0">number(6)</text>
<text text-anchor="start" x="67.5" y="-576.6" font-family="Arial" font-size="8.00"> </text>
<text text-anchor="start" x="82" y="-577.6" font-family="Arial" font-size="8.00">unit_price</text>
<text text-anchor="start" x="118" y="-577.6" font-family="Arial" font-style="italic" font-size="8.00" fill="#c0c0c0">number(8,2)</text>
<text text-anchor="start" x="67.5" y="-559.6" font-family="Arial" font-size="8.00"> </text>
<text text-anchor="start" x="82" y="-560.6" font-family="Arial" font-size="8.00">quantity</text>
<text text-anchor="start" x="111" y="-560.6" font-family="Arial" font-style="italic" font-size="8.00" fill="#c0c0c0">number(8)</text>
<polygon fill="black" stroke="black" points="59,-638 59,-638 178,-638 178,-638 59,-638"/>
<polygon fill="black" stroke="black" points="78,-621 78,-638 78,-638 78,-621 78,-621"/>
<polygon fill="black" stroke="black" points="78,-604 78,-621 78,-621 78,-604 78,-604"/>
<polygon fill="black" stroke="black" points="78,-587 78,-604 78,-604 78,-587 78,-587"/>
<polygon fill="black" stroke="black" points="78,-570 78,-587 78,-587 78,-570 78,-570"/>
<polygon fill="black" stroke="black" points="78,-552 78,-570 78,-570 78,-552 78,-552"/>
<polygon fill="none" stroke="black" points="58.5,-552 58.5,-656 177.5,-656 177.5,-552 58.5,-552"/>
</g>
<!-- ORDER_ITEMS&#45;&#45;ORDERS -->
<g id="edge4" class="edge">
<title>ORDER_ITEMS&#45;&#45;ORDERS</title>
<path fill="none" stroke="black" d="M112.86,-551.85C111.28,-536.14 109.49,-518.37 107.74,-500.96"/>
<polygon fill="black" stroke="black" points="111.2,-500.36 106.72,-490.76 104.23,-501.06 111.2,-500.36"/>
</g>
<!-- ORDER_ITEMS&#45;&#45;PRODUCT_INFORMATION -->
<g id="edge5" class="edge">
<title>ORDER_ITEMS&#45;&#45;PRODUCT_INFORMATION</title>
<path fill="none" stroke="black" d="M170.93,-551.7C182.86,-540.03 195.41,-527.63 207,-516 207.67,-515.33 208.34,-514.66 209.01,-513.98"/>
<polygon fill="black" stroke="black" points="211.7,-516.23 216.26,-506.67 206.73,-511.3 211.7,-516.23"/>
</g>
<!-- PRODUCT_DESCRIPTIONS -->
<g id="node7" class="node">
<title>PRODUCT_DESCRIPTIONS</title>
<polygon fill="#c0c0c0" stroke="transparent" points="215,-629 215,-646 396,-646 396,-629 215,-629"/>
<text text-anchor="start" x="255" y="-636.6" font-family="Arial" font-weight="bold" font-size="8.00">PRODUCT_DESCRIPTIONS</text>
<text text-anchor="start" x="219" y="-618.6" font-family="Arial" font-size="8.00">PK</text>
<text text-anchor="start" x="237" y="-619.6" font-family="Arial" font-weight="bold" text-decoration="underline" font-size="8.00">product_id</text>
<text text-anchor="start" x="282" y="-619.6" font-family="Arial" font-style="italic" font-size="8.00" fill="#c0c0c0">number(6)</text>
<text text-anchor="start" x="219" y="-601.6" font-family="Arial" font-size="8.00">PK</text>
<text text-anchor="start" x="237" y="-602.6" font-family="Arial" font-weight="bold" text-decoration="underline" font-size="8.00">language_id</text>
<text text-anchor="start" x="287" y="-602.6" font-family="Arial" font-style="italic" font-size="8.00" fill="#c0c0c0">varchar2(3)</text>
<text text-anchor="start" x="222.5" y="-584.6" font-family="Arial" font-size="8.00"> </text>
<text text-anchor="start" x="237" y="-585.6" font-family="Arial" font-weight="bold" font-size="8.00">translated_name</text>
<text text-anchor="start" x="307" y="-585.6" font-family="Arial" font-style="italic" font-size="8.00" fill="#c0c0c0">nvarchar2(100)</text>
<text text-anchor="start" x="222.5" y="-567.6" font-family="Arial" font-size="8.00"> </text>
<text text-anchor="start" x="237" y="-568.6" font-family="Arial" font-weight="bold" font-size="8.00">translated_description</text>
<text text-anchor="start" x="331" y="-568.6" font-family="Arial" font-style="italic" font-size="8.00" fill="#c0c0c0">nvarchar2(4000)</text>
<polygon fill="black" stroke="black" points="214,-629 214,-629 397,-629 397,-629 214,-629"/>
<polygon fill="black" stroke="black" points="233,-612 233,-629 233,-629 233,-612 233,-612"/>
<polygon fill="black" stroke="black" points="233,-595 233,-612 233,-612 233,-595 233,-595"/>
<polygon fill="black" stroke="black" points="233,-578 233,-595 233,-595 233,-578 233,-578"/>
<polygon fill="black" stroke="black" points="233,-560 233,-578 233,-578 233,-560 233,-560"/>
<polygon fill="none" stroke="black" points="213.5,-560.5 213.5,-647.5 396.5,-647.5 396.5,-560.5 213.5,-560.5"/>
</g>
<!-- PRODUCT_DESCRIPTIONS&#45;&#45;PRODUCT_INFORMATION -->
<g id="edge6" class="edge">
<title>PRODUCT_DESCRIPTIONS&#45;&#45;PRODUCT_INFORMATION</title>
<path fill="none" stroke="black" d="M305.23,-560.11C305.28,-549.73 305.34,-538.15 305.41,-526.18"/>
<polygon fill="black" stroke="black" points="308.91,-526.07 305.46,-516.05 301.91,-526.03 308.91,-526.07"/>
</g>
<!-- PROMOTIONS -->
<g id="node8" class="node">
<title>PROMOTIONS</title>
<polygon fill="#c0c0c0" stroke="transparent" points="575,-612 575,-629 696,-629 696,-612 575,-612"/>
<text text-anchor="start" x="608" y="-619.6" font-family="Arial" font-weight="bold" font-size="8.00">PROMOTIONS</text>
<text text-anchor="start" x="579" y="-601.6" font-family="Arial" font-size="8.00">PK</text>
<text text-anchor="start" x="597" y="-602.6" font-family="Arial" font-weight="bold" text-decoration="underline" font-size="8.00">promo_id</text>
<text text-anchor="start" x="637" y="-602.6" font-family="Arial" font-style="italic" font-size="8.00" fill="#c0c0c0">number(6)</text>
<text text-anchor="start" x="582.5" y="-584.6" font-family="Arial" font-size="8.00"> </text>
<text text-anchor="start" x="597" y="-585.6" font-family="Arial" font-size="8.00">promo_name</text>
<text text-anchor="start" x="644" y="-585.6" font-family="Arial" font-style="italic" font-size="8.00" fill="#c0c0c0">varchar2(20)</text>
<polygon fill="black" stroke="black" points="574,-612 574,-612 697,-612 697,-612 574,-612"/>
<polygon fill="black" stroke="black" points="593,-595 593,-612 593,-612 593,-595 593,-595"/>
<polygon fill="black" stroke="black" points="593,-577 593,-595 593,-595 593,-577 593,-577"/>
<polygon fill="none" stroke="black" points="573.5,-577.5 573.5,-630.5 696.5,-630.5 696.5,-577.5 573.5,-577.5"/>
</g>
</g>
</svg>
