<?xml version="1.0" encoding="UTF-8" standalone="no"?>
<!DOCTYPE svg PUBLIC "-//W3C//DTD SVG 1.1//EN"
 "http://www.w3.org/Graphics/SVG/1.1/DTD/svg11.dtd">
<!-- Generated by graphviz version 3.0.0 (20220226.1711)
 -->
<!-- Title: TabGraph Pages: 1 -->
<svg width="146pt" height="197pt"
 viewBox="0.00 0.00 146.00 197.00" xmlns="http://www.w3.org/2000/svg" xmlns:xlink="http://www.w3.org/1999/xlink">
<g id="graph0" class="graph" transform="scale(1 1) rotate(0) translate(4 193)">
<title>TabGraph</title>
<polygon fill="white" stroke="transparent" points="-4,4 -4,-193 142,-193 142,4 -4,4"/>
<!-- PRINT_MEDIA -->
<g id="node1" class="node">
<title>PRINT_MEDIA</title>
<polygon fill="#c0c0c0" stroke="transparent" points="1,-170.5 1,-187.5 137,-187.5 137,-170.5 1,-170.5"/>
<text text-anchor="start" x="42" y="-178.1" font-family="Arial" font-weight="bold" font-size="8.00">PRINT_MEDIA</text>
<text text-anchor="start" x="5" y="-160.1" font-family="Arial" font-size="8.00">PK</text>
<text text-anchor="start" x="23" y="-161.1" font-family="Arial" font-weight="bold" text-decoration="underline" font-size="8.00">product_id</text>
<text text-anchor="start" x="68" y="-161.1" font-family="Arial" font-style="italic" font-size="8.00" fill="#c0c0c0">number(6)</text>
<text text-anchor="start" x="5" y="-143.1" font-family="Arial" font-size="8.00">PK</text>
<text text-anchor="start" x="23" y="-144.1" font-family="Arial" font-weight="bold" text-decoration="underline" font-size="8.00">ad_id</text>
<text text-anchor="start" x="45" y="-144.1" font-family="Arial" font-style="italic" font-size="8.00" fill="#c0c0c0">number(6)</text>
<text text-anchor="start" x="8.5" y="-126.1" font-family="Arial" font-size="8.00"> </text>
<text text-anchor="start" x="23" y="-127.1" font-family="Arial" font-size="8.00">ad_composite</text>
<text text-anchor="start" x="74" y="-127.1" font-family="Arial" font-style="italic" font-size="8.00" fill="#c0c0c0">blob</text>
<text text-anchor="start" x="8.5" y="-109.1" font-family="Arial" font-size="8.00"> </text>
<text text-anchor="start" x="23" y="-110.1" font-family="Arial" font-size="8.00">ad_sourcetext</text>
<text text-anchor="start" x="76" y="-110.1" font-family="Arial" font-style="italic" font-size="8.00" fill="#c0c0c0">clob</text>
<text text-anchor="start" x="8.5" y="-92.1" font-family="Arial" font-size="8.00"> </text>
<text text-anchor="start" x="23" y="-93.1" font-family="Arial" font-size="8.00">ad_finaltext</text>
<text text-anchor="start" x="66" y="-93.1" font-family="Arial" font-style="italic" font-size="8.00" fill="#c0c0c0">clob</text>
<text text-anchor="start" x="8.5" y="-75.1" font-family="Arial" font-size="8.00"> </text>
<text text-anchor="start" x="23" y="-76.1" font-family="Arial" font-size="8.00">ad_fltextn</text>
<text text-anchor="start" x="60" y="-76.1" font-family="Arial" font-style="italic" font-size="8.00" fill="#c0c0c0">nclob</text>
<text text-anchor="start" x="8.5" y="-58.1" font-family="Arial" font-size="8.00"> </text>
<text text-anchor="start" x="23" y="-59.1" font-family="Arial" font-size="8.00">ad_textdocs_ntab</text>
<text text-anchor="start" x="89" y="-59.1" font-family="Arial" font-style="italic" font-size="8.00" fill="#c0c0c0">textdoc_tab</text>
<text text-anchor="start" x="8.5" y="-41.1" font-family="Arial" font-size="8.00"> </text>
<text text-anchor="start" x="23" y="-42.1" font-family="Arial" font-size="8.00">ad_photo</text>
<text text-anchor="start" x="57" y="-42.1" font-family="Arial" font-style="italic" font-size="8.00" fill="#c0c0c0">blob</text>
<text text-anchor="start" x="8.5" y="-24.1" font-family="Arial" font-size="8.00"> </text>
<text text-anchor="start" x="23" y="-25.1" font-family="Arial" font-size="8.00">ad_graphic</text>
<text text-anchor="start" x="64" y="-25.1" font-family="Arial" font-style="italic" font-size="8.00" fill="#c0c0c0">bfile</text>
<text text-anchor="start" x="8.5" y="-7.1" font-family="Arial" font-size="8.00"> </text>
<text text-anchor="start" x="23" y="-8.1" font-family="Arial" font-size="8.00">ad_header</text>
<text text-anchor="start" x="63" y="-8.1" font-family="Arial" font-style="italic" font-size="8.00" fill="#c0c0c0">adheader_typ</text>
<polygon fill="black" stroke="black" points="0,-170.5 0,-170.5 138,-170.5 138,-170.5 0,-170.5"/>
<polygon fill="black" stroke="black" points="19,-153.5 19,-170.5 19,-170.5 19,-153.5 19,-153.5"/>
<polygon fill="black" stroke="black" points="19,-136.5 19,-153.5 19,-153.5 19,-136.5 19,-136.5"/>
<polygon fill="black" stroke="black" points="19,-119.5 19,-136.5 19,-136.5 19,-119.5 19,-119.5"/>
<polygon fill="black" stroke="black" points="19,-102.5 19,-119.5 19,-119.5 19,-102.5 19,-102.5"/>
<polygon fill="black" stroke="black" points="19,-85.5 19,-102.5 19,-102.5 19,-85.5 19,-85.5"/>
<polygon fill="black" stroke="black" points="19,-68.5 19,-85.5 19,-85.5 19,-68.5 19,-68.5"/>
<polygon fill="black" stroke="black" points="19,-51.5 19,-68.5 19,-68.5 19,-51.5 19,-51.5"/>
<polygon fill="black" stroke="black" points="19,-34.5 19,-51.5 19,-51.5 19,-34.5 19,-34.5"/>
<polygon fill="black" stroke="black" points="19,-17.5 19,-34.5 19,-34.5 19,-17.5 19,-17.5"/>
<polygon fill="black" stroke="black" points="19,0.5 19,-17.5 19,-17.5 19,0.5 19,0.5"/>
<polygon fill="none" stroke="black" points="0,0 0,-189 138,-189 138,0 0,0"/>
</g>
</g>
</svg>
