<?xml version="1.0" encoding="UTF-8" standalone="no"?>
<!DOCTYPE svg PUBLIC "-//W3C//DTD SVG 1.1//EN"
 "http://www.w3.org/Graphics/SVG/1.1/DTD/svg11.dtd">
<!-- Generated by graphviz version 3.0.0 (20220226.1711)
 -->
<!-- Title: x Pages: 1 -->
<svg width="1329pt" height="1315pt"
 viewBox="0.00 0.00 1329.00 1314.50" xmlns="http://www.w3.org/2000/svg" xmlns:xlink="http://www.w3.org/1999/xlink">
<g id="graph0" class="graph" transform="scale(1 1) rotate(0) translate(4 1310.5)">
<title>x</title>
<polygon fill="white" stroke="transparent" points="-4,4 -4,-1310.5 1325,-1310.5 1325,4 -4,4"/>
<!-- ARQ_AGENDA -->
<g id="node1" class="node">
<title>ARQ_AGENDA</title>
<polygon fill="none" stroke="black" points="352,-327 352,-538 474,-538 474,-327 352,-327"/>
<text text-anchor="middle" x="413" y="-522.8" font-family="Times New Roman,serif" font-size="14.00">ARQ_AGENDA</text>
<polyline fill="none" stroke="black" points="352,-515 474,-515 "/>
<text text-anchor="middle" x="413" y="-499.8" font-family="Times New Roman,serif" font-size="14.00">id_arq_agenda</text>
<text text-anchor="middle" x="413" y="-484.8" font-family="Times New Roman,serif" font-size="14.00">id_arq_conteudo</text>
<text text-anchor="middle" x="413" y="-469.8" font-family="Times New Roman,serif" font-size="14.00">id_emissor</text>
<text text-anchor="middle" x="413" y="-454.8" font-family="Times New Roman,serif" font-size="14.00">intervalo</text>
<text text-anchor="middle" x="413" y="-439.8" font-family="Times New Roman,serif" font-size="14.00">proxima_execucao</text>
<text text-anchor="middle" x="413" y="-424.8" font-family="Times New Roman,serif" font-size="14.00">status</text>
<text text-anchor="middle" x="413" y="-409.8" font-family="Times New Roman,serif" font-size="14.00">nome_arquivo</text>
<text text-anchor="middle" x="413" y="-394.8" font-family="Times New Roman,serif" font-size="14.00">exp_numero</text>
<text text-anchor="middle" x="413" y="-379.8" font-family="Times New Roman,serif" font-size="14.00">exp_texto</text>
<text text-anchor="middle" x="413" y="-364.8" font-family="Times New Roman,serif" font-size="14.00">exp_data_inicio</text>
<text text-anchor="middle" x="413" y="-349.8" font-family="Times New Roman,serif" font-size="14.00">exp_data_fim</text>
<text text-anchor="middle" x="413" y="-334.8" font-family="Times New Roman,serif" font-size="14.00">exp_sub_diretorio</text>
</g>
<!-- EMISSOR -->
<g id="node2" class="node">
<title>EMISSOR</title>
<polygon fill="none" stroke="black" points="663.5,-255.5 663.5,-451.5 767.5,-451.5 767.5,-255.5 663.5,-255.5"/>
<text text-anchor="middle" x="715.5" y="-436.3" font-family="Times New Roman,serif" font-size="14.00">EMISSOR</text>
<polyline fill="none" stroke="black" points="663.5,-428.5 767.5,-428.5 "/>
<text text-anchor="middle" x="715.5" y="-413.3" font-family="Times New Roman,serif" font-size="14.00">id_emissor</text>
<text text-anchor="middle" x="715.5" y="-398.3" font-family="Times New Roman,serif" font-size="14.00">nome</text>
<text text-anchor="middle" x="715.5" y="-383.3" font-family="Times New Roman,serif" font-size="14.00">sigla</text>
<text text-anchor="middle" x="715.5" y="-368.3" font-family="Times New Roman,serif" font-size="14.00">cnpj</text>
<text text-anchor="middle" x="715.5" y="-353.3" font-family="Times New Roman,serif" font-size="14.00">razao_social</text>
<text text-anchor="middle" x="715.5" y="-338.3" font-family="Times New Roman,serif" font-size="14.00">gerar_bmd</text>
<text text-anchor="middle" x="715.5" y="-323.3" font-family="Times New Roman,serif" font-size="14.00">id_op_empresa</text>
<text text-anchor="middle" x="715.5" y="-308.3" font-family="Times New Roman,serif" font-size="14.00">id_ccg_conta</text>
<text text-anchor="middle" x="715.5" y="-293.3" font-family="Times New Roman,serif" font-size="14.00">arq_raiz</text>
<text text-anchor="middle" x="715.5" y="-278.3" font-family="Times New Roman,serif" font-size="14.00">codigo_rec</text>
<text text-anchor="middle" x="715.5" y="-263.3" font-family="Times New Roman,serif" font-size="14.00">prazo_prejuizo</text>
</g>
<!-- ARQ_AGENDA&#45;&gt;EMISSOR -->
<g id="edge1" class="edge">
<title>ARQ_AGENDA&#45;&gt;EMISSOR</title>
<path fill="none" stroke="black" d="M474.09,-416.7C526.06,-403.04 600.87,-383.37 653.2,-369.62"/>
<polygon fill="black" stroke="black" points="654.24,-372.96 663.02,-367.03 652.46,-366.19 654.24,-372.96"/>
<text text-anchor="middle" x="569.5" y="-410.3" font-family="Times New Roman,serif" font-size="14.00">arq_agenda_fk2</text>
</g>
<!-- ARQ_CONTEUDO -->
<g id="node10" class="node">
<title>ARQ_CONTEUDO</title>
<polygon fill="none" stroke="black" points="650,-493.5 650,-719.5 781,-719.5 781,-493.5 650,-493.5"/>
<text text-anchor="middle" x="715.5" y="-704.3" font-family="Times New Roman,serif" font-size="14.00">ARQ_CONTEUDO</text>
<polyline fill="none" stroke="black" points="650,-696.5 781,-696.5 "/>
<text text-anchor="middle" x="715.5" y="-681.3" font-family="Times New Roman,serif" font-size="14.00">id_arq_conteudo</text>
<text text-anchor="middle" x="715.5" y="-666.3" font-family="Times New Roman,serif" font-size="14.00">descricao</text>
<text text-anchor="middle" x="715.5" y="-651.3" font-family="Times New Roman,serif" font-size="14.00">id_arq_tipo</text>
<text text-anchor="middle" x="715.5" y="-636.3" font-family="Times New Roman,serif" font-size="14.00">id_arq_operacao</text>
<text text-anchor="middle" x="715.5" y="-621.3" font-family="Times New Roman,serif" font-size="14.00">modo_procto</text>
<text text-anchor="middle" x="715.5" y="-606.3" font-family="Times New Roman,serif" font-size="14.00">diretorio</text>
<text text-anchor="middle" x="715.5" y="-591.3" font-family="Times New Roman,serif" font-size="14.00">mask_pesquisa</text>
<text text-anchor="middle" x="715.5" y="-576.3" font-family="Times New Roman,serif" font-size="14.00">email_aviso</text>
<text text-anchor="middle" x="715.5" y="-561.3" font-family="Times New Roman,serif" font-size="14.00">id_arq_transmissao</text>
<text text-anchor="middle" x="715.5" y="-546.3" font-family="Times New Roman,serif" font-size="14.00">corpo_email</text>
<text text-anchor="middle" x="715.5" y="-531.3" font-family="Times New Roman,serif" font-size="14.00">assunto</text>
<text text-anchor="middle" x="715.5" y="-516.3" font-family="Times New Roman,serif" font-size="14.00">formato</text>
<text text-anchor="middle" x="715.5" y="-501.3" font-family="Times New Roman,serif" font-size="14.00">charset</text>
</g>
<!-- ARQ_AGENDA&#45;&gt;ARQ_CONTEUDO -->
<g id="edge9" class="edge">
<title>ARQ_AGENDA&#45;&gt;ARQ_CONTEUDO</title>
<path fill="none" stroke="black" d="M474.09,-467.29C522.18,-495.14 589.82,-534.3 641.1,-564"/>
<polygon fill="black" stroke="black" points="639.43,-567.07 649.83,-569.06 642.93,-561.02 639.43,-567.07"/>
<text text-anchor="middle" x="569.5" y="-558.3" font-family="Times New Roman,serif" font-size="14.00">arq_agenda_fk1</text>
</g>
<!-- CCG_CONTA -->
<g id="node12" class="node">
<title>CCG_CONTA</title>
<polygon fill="none" stroke="black" points="946.5,-230.5 946.5,-266.5 1049.5,-266.5 1049.5,-230.5 946.5,-230.5"/>
<text text-anchor="middle" x="998" y="-244.8" font-family="Times New Roman,serif" font-size="14.00">CCG_CONTA</text>
</g>
<!-- EMISSOR&#45;&gt;CCG_CONTA -->
<g id="edge11" class="edge">
<title>EMISSOR&#45;&gt;CCG_CONTA</title>
<path fill="none" stroke="black" d="M767.62,-334.36C816.02,-316.25 888.59,-289.08 939.1,-270.18"/>
<polygon fill="black" stroke="black" points="940.44,-273.41 948.57,-266.63 937.98,-266.86 940.44,-273.41"/>
<text text-anchor="middle" x="851" y="-325.3" font-family="Times New Roman,serif" font-size="14.00">emissor_fk1</text>
</g>
<!-- OP_EMPRESA -->
<g id="node23" class="node">
<title>OP_EMPRESA</title>
<polygon fill="none" stroke="black" points="944.5,-335.5 944.5,-371.5 1051.5,-371.5 1051.5,-335.5 944.5,-335.5"/>
<text text-anchor="middle" x="998" y="-349.8" font-family="Times New Roman,serif" font-size="14.00">OP_EMPRESA</text>
</g>
<!-- EMISSOR&#45;&gt;OP_EMPRESA -->
<g id="edge26" class="edge">
<title>EMISSOR&#45;&gt;OP_EMPRESA</title>
<path fill="none" stroke="black" d="M767.62,-353.5C814.49,-353.5 884.02,-353.5 934.24,-353.5"/>
<polygon fill="black" stroke="black" points="934.33,-357 944.33,-353.5 934.33,-350 934.33,-357"/>
<text text-anchor="middle" x="851" y="-357.3" font-family="Times New Roman,serif" font-size="14.00">emissor_fk2</text>
</g>
<!-- ARQ_CONVERSOR -->
<g id="node3" class="node">
<title>ARQ_CONVERSOR</title>
<polygon fill="none" stroke="black" points="26.5,-809.5 26.5,-915.5 166.5,-915.5 166.5,-809.5 26.5,-809.5"/>
<text text-anchor="middle" x="96.5" y="-900.3" font-family="Times New Roman,serif" font-size="14.00">ARQ_CONVERSOR</text>
<polyline fill="none" stroke="black" points="26.5,-892.5 166.5,-892.5 "/>
<text text-anchor="middle" x="96.5" y="-877.3" font-family="Times New Roman,serif" font-size="14.00">id_arquivo_saida</text>
<text text-anchor="middle" x="96.5" y="-862.3" font-family="Times New Roman,serif" font-size="14.00">linha</text>
<text text-anchor="middle" x="96.5" y="-847.3" font-family="Times New Roman,serif" font-size="14.00">id_arquivo_entrada</text>
<text text-anchor="middle" x="96.5" y="-832.3" font-family="Times New Roman,serif" font-size="14.00">chave</text>
<text text-anchor="middle" x="96.5" y="-817.3" font-family="Times New Roman,serif" font-size="14.00">conteudo</text>
</g>
<!-- ARQUIVO -->
<g id="node4" class="node">
<title>ARQUIVO</title>
<polygon fill="none" stroke="black" points="350,-613 350,-974 476,-974 476,-613 350,-613"/>
<text text-anchor="middle" x="413" y="-958.8" font-family="Times New Roman,serif" font-size="14.00">ARQUIVO</text>
<polyline fill="none" stroke="black" points="350,-951 476,-951 "/>
<text text-anchor="middle" x="413" y="-935.8" font-family="Times New Roman,serif" font-size="14.00">id_arquivo</text>
<text text-anchor="middle" x="413" y="-920.8" font-family="Times New Roman,serif" font-size="14.00">id_arq_estado</text>
<text text-anchor="middle" x="413" y="-905.8" font-family="Times New Roman,serif" font-size="14.00">id_arq_conteudo</text>
<text text-anchor="middle" x="413" y="-890.8" font-family="Times New Roman,serif" font-size="14.00">id_emissor</text>
<text text-anchor="middle" x="413" y="-875.8" font-family="Times New Roman,serif" font-size="14.00">data_procto</text>
<text text-anchor="middle" x="413" y="-860.8" font-family="Times New Roman,serif" font-size="14.00">qtde_geral</text>
<text text-anchor="middle" x="413" y="-845.8" font-family="Times New Roman,serif" font-size="14.00">qtde_erro</text>
<text text-anchor="middle" x="413" y="-830.8" font-family="Times New Roman,serif" font-size="14.00">avisado</text>
<text text-anchor="middle" x="413" y="-815.8" font-family="Times New Roman,serif" font-size="14.00">nome</text>
<text text-anchor="middle" x="413" y="-800.8" font-family="Times New Roman,serif" font-size="14.00">tamanho</text>
<text text-anchor="middle" x="413" y="-785.8" font-family="Times New Roman,serif" font-size="14.00">linhas</text>
<text text-anchor="middle" x="413" y="-770.8" font-family="Times New Roman,serif" font-size="14.00">data_arquivo</text>
<text text-anchor="middle" x="413" y="-755.8" font-family="Times New Roman,serif" font-size="14.00">observacao</text>
<text text-anchor="middle" x="413" y="-740.8" font-family="Times New Roman,serif" font-size="14.00">sub_diretorio</text>
<text text-anchor="middle" x="413" y="-725.8" font-family="Times New Roman,serif" font-size="14.00">procto_autorizado</text>
<text text-anchor="middle" x="413" y="-710.8" font-family="Times New Roman,serif" font-size="14.00">id_arq_transmissao</text>
<text text-anchor="middle" x="413" y="-695.8" font-family="Times New Roman,serif" font-size="14.00">data_envio</text>
<text text-anchor="middle" x="413" y="-680.8" font-family="Times New Roman,serif" font-size="14.00">dados_envio</text>
<text text-anchor="middle" x="413" y="-665.8" font-family="Times New Roman,serif" font-size="14.00">prm_numero</text>
<text text-anchor="middle" x="413" y="-650.8" font-family="Times New Roman,serif" font-size="14.00">prm_texto</text>
<text text-anchor="middle" x="413" y="-635.8" font-family="Times New Roman,serif" font-size="14.00">prm_data_inicio</text>
<text text-anchor="middle" x="413" y="-620.8" font-family="Times New Roman,serif" font-size="14.00">prm_data_fim</text>
</g>
<!-- ARQ_CONVERSOR&#45;&gt;ARQUIVO -->
<g id="edge2" class="edge">
<title>ARQ_CONVERSOR&#45;&gt;ARQUIVO</title>
<path fill="none" stroke="black" d="M166.8,-824.61C181.06,-818.23 196.24,-812.42 211,-808.5 252.76,-797.42 300.99,-793.54 339.74,-792.49"/>
<polygon fill="black" stroke="black" points="339.97,-795.99 349.89,-792.27 339.82,-788.99 339.97,-795.99"/>
<text text-anchor="middle" x="265" y="-812.3" font-family="Times New Roman,serif" font-size="14.00">arq_conversor_fk2</text>
</g>
<!-- ARQ_CONVERSOR&#45;&gt;ARQUIVO -->
<g id="edge7" class="edge">
<title>ARQ_CONVERSOR&#45;&gt;ARQUIVO</title>
<path fill="none" stroke="black" d="M166.86,-852.8C210.78,-846.04 268.6,-836 319,-823.5 325.91,-821.79 333.04,-819.83 340.15,-817.76"/>
<polygon fill="black" stroke="black" points="341.23,-821.09 349.81,-814.86 339.22,-814.38 341.23,-821.09"/>
<text text-anchor="middle" x="265" y="-848.3" font-family="Times New Roman,serif" font-size="14.00">arq_conversor_fk1</text>
</g>
<!-- ARQUIVO&#45;&gt;EMISSOR -->
<g id="edge24" class="edge">
<title>ARQUIVO&#45;&gt;EMISSOR</title>
<path fill="none" stroke="black" d="M476.12,-693.07C485.75,-680.49 496.14,-668.28 507,-657.5 554.52,-610.36 594.8,-629.14 632,-573.5 654.43,-539.95 636.98,-522.7 650,-484.5 652.79,-476.31 655.99,-467.97 659.43,-459.67"/>
<polygon fill="black" stroke="black" points="662.71,-460.9 663.41,-450.32 656.27,-458.15 662.71,-460.9"/>
<text text-anchor="middle" x="569.5" y="-661.3" font-family="Times New Roman,serif" font-size="14.00">arquivo_fk4</text>
</g>
<!-- ARQ_ESTADO -->
<g id="node8" class="node">
<title>ARQ_ESTADO</title>
<polygon fill="none" stroke="black" points="660.5,-739 660.5,-800 770.5,-800 770.5,-739 660.5,-739"/>
<text text-anchor="middle" x="715.5" y="-784.8" font-family="Times New Roman,serif" font-size="14.00">ARQ_ESTADO</text>
<polyline fill="none" stroke="black" points="660.5,-777 770.5,-777 "/>
<text text-anchor="middle" x="715.5" y="-761.8" font-family="Times New Roman,serif" font-size="14.00">id_arq_estado</text>
<text text-anchor="middle" x="715.5" y="-746.8" font-family="Times New Roman,serif" font-size="14.00">descricao</text>
</g>
<!-- ARQUIVO&#45;&gt;ARQ_ESTADO -->
<g id="edge6" class="edge">
<title>ARQUIVO&#45;&gt;ARQ_ESTADO</title>
<path fill="none" stroke="black" d="M476.26,-788.53C527.19,-784.46 598.94,-778.73 650.37,-774.62"/>
<polygon fill="black" stroke="black" points="650.69,-778.11 660.38,-773.82 650.13,-771.13 650.69,-778.11"/>
<text text-anchor="middle" x="569.5" y="-789.3" font-family="Times New Roman,serif" font-size="14.00">arquivo_fk2</text>
</g>
<!-- ARQUIVO&#45;&gt;ARQ_CONTEUDO -->
<g id="edge17" class="edge">
<title>ARQUIVO&#45;&gt;ARQ_CONTEUDO</title>
<path fill="none" stroke="black" d="M476.15,-764.53C520.9,-742.63 581.95,-710.6 632,-676.5 635.23,-674.3 638.47,-672 641.71,-669.62"/>
<polygon fill="black" stroke="black" points="643.85,-672.39 649.75,-663.59 639.65,-666.8 643.85,-672.39"/>
<text text-anchor="middle" x="569.5" y="-750.3" font-family="Times New Roman,serif" font-size="14.00">arquivo_fk1</text>
</g>
<!-- ARQ_TRANSMISSAO -->
<g id="node13" class="node">
<title>ARQ_TRANSMISSAO</title>
<polygon fill="none" stroke="black" points="921,-713 921,-864 1075,-864 1075,-713 921,-713"/>
<text text-anchor="middle" x="998" y="-848.8" font-family="Times New Roman,serif" font-size="14.00">ARQ_TRANSMISSAO</text>
<polyline fill="none" stroke="black" points="921,-841 1075,-841 "/>
<text text-anchor="middle" x="998" y="-825.8" font-family="Times New Roman,serif" font-size="14.00">id_arq_transmissao</text>
<text text-anchor="middle" x="998" y="-810.8" font-family="Times New Roman,serif" font-size="14.00">id_arq_meio</text>
<text text-anchor="middle" x="998" y="-795.8" font-family="Times New Roman,serif" font-size="14.00">email</text>
<text text-anchor="middle" x="998" y="-780.8" font-family="Times New Roman,serif" font-size="14.00">ftp_endereco</text>
<text text-anchor="middle" x="998" y="-765.8" font-family="Times New Roman,serif" font-size="14.00">ftp_porta</text>
<text text-anchor="middle" x="998" y="-750.8" font-family="Times New Roman,serif" font-size="14.00">ftp_usuario</text>
<text text-anchor="middle" x="998" y="-735.8" font-family="Times New Roman,serif" font-size="14.00">ftp_senha</text>
<text text-anchor="middle" x="998" y="-720.8" font-family="Times New Roman,serif" font-size="14.00">ftp_diretorio</text>
</g>
<!-- ARQUIVO&#45;&gt;ARQ_TRANSMISSAO -->
<g id="edge12" class="edge">
<title>ARQUIVO&#45;&gt;ARQ_TRANSMISSAO</title>
<path fill="none" stroke="black" d="M476.21,-801.58C486.48,-802.71 497.03,-803.74 507,-804.5 628.44,-813.79 659.34,-815.4 781,-809.5 823.84,-807.42 871.29,-803.04 910.79,-798.81"/>
<polygon fill="black" stroke="black" points="911.34,-802.27 920.91,-797.71 910.59,-795.31 911.34,-802.27"/>
<text text-anchor="middle" x="715.5" y="-816.3" font-family="Times New Roman,serif" font-size="14.00">arquivo_fk3</text>
</g>
<!-- BLT_ARQUIVO -->
<g id="node5" class="node">
<title>BLT_ARQUIVO</title>
<polygon fill="none" stroke="black" points="39,-524 39,-615 154,-615 154,-524 39,-524"/>
<text text-anchor="middle" x="96.5" y="-599.8" font-family="Times New Roman,serif" font-size="14.00">BLT_ARQUIVO</text>
<polyline fill="none" stroke="black" points="39,-592 154,-592 "/>
<text text-anchor="middle" x="96.5" y="-576.8" font-family="Times New Roman,serif" font-size="14.00">id_arquivo</text>
<text text-anchor="middle" x="96.5" y="-561.8" font-family="Times New Roman,serif" font-size="14.00">id_bco_convenio</text>
<text text-anchor="middle" x="96.5" y="-546.8" font-family="Times New Roman,serif" font-size="14.00">data_credito</text>
<text text-anchor="middle" x="96.5" y="-531.8" font-family="Times New Roman,serif" font-size="14.00">id_ccg_movto</text>
</g>
<!-- BLT_ARQUIVO&#45;&gt;ARQUIVO -->
<g id="edge3" class="edge">
<title>BLT_ARQUIVO&#45;&gt;ARQUIVO</title>
<path fill="none" stroke="black" d="M154,-580.77C217.41,-593.61 312.36,-613.45 319,-618.5 327.81,-625.2 335.87,-632.97 343.23,-641.45"/>
<polygon fill="black" stroke="black" points="340.74,-643.93 349.8,-649.42 346.15,-639.48 340.74,-643.93"/>
<text text-anchor="middle" x="265" y="-622.3" font-family="Times New Roman,serif" font-size="14.00">blt_arquivo_fk1</text>
</g>
<!-- CCG_MOVTO -->
<g id="node6" class="node">
<title>CCG_MOVTO</title>
<polygon fill="none" stroke="black" points="360,-271.5 360,-307.5 466,-307.5 466,-271.5 360,-271.5"/>
<text text-anchor="middle" x="413" y="-285.8" font-family="Times New Roman,serif" font-size="14.00">CCG_MOVTO</text>
</g>
<!-- BLT_ARQUIVO&#45;&gt;CCG_MOVTO -->
<g id="edge4" class="edge">
<title>BLT_ARQUIVO&#45;&gt;CCG_MOVTO</title>
<path fill="none" stroke="black" d="M130.33,-523.91C172.51,-468.28 250.65,-374.58 337,-317.5 341.24,-314.7 345.8,-312.12 350.5,-309.77"/>
<polygon fill="black" stroke="black" points="352.06,-312.9 359.66,-305.52 349.12,-306.55 352.06,-312.9"/>
<text text-anchor="middle" x="265" y="-426.3" font-family="Times New Roman,serif" font-size="14.00">blt_arquivo_fk3</text>
</g>
<!-- BCO_CONVENIO -->
<g id="node7" class="node">
<title>BCO_CONVENIO</title>
<polygon fill="none" stroke="black" points="350,-557.5 350,-593.5 476,-593.5 476,-557.5 350,-557.5"/>
<text text-anchor="middle" x="413" y="-571.8" font-family="Times New Roman,serif" font-size="14.00">BCO_CONVENIO</text>
</g>
<!-- BLT_ARQUIVO&#45;&gt;BCO_CONVENIO -->
<g id="edge5" class="edge">
<title>BLT_ARQUIVO&#45;&gt;BCO_CONVENIO</title>
<path fill="none" stroke="black" d="M154.09,-570.58C206.03,-571.57 283.26,-573.04 339.66,-574.12"/>
<polygon fill="black" stroke="black" points="339.88,-577.62 349.94,-574.32 340.01,-570.63 339.88,-577.62"/>
<text text-anchor="middle" x="265" y="-577.3" font-family="Times New Roman,serif" font-size="14.00">blt_arquivo_fk2</text>
</g>
<!-- PGT_ARQUIVO -->
<g id="node9" class="node">
<title>PGT_ARQUIVO</title>
<polygon fill="none" stroke="black" points="38.5,-634 38.5,-695 154.5,-695 154.5,-634 38.5,-634"/>
<text text-anchor="middle" x="96.5" y="-679.8" font-family="Times New Roman,serif" font-size="14.00">PGT_ARQUIVO</text>
<polyline fill="none" stroke="black" points="38.5,-672 154.5,-672 "/>
<text text-anchor="middle" x="96.5" y="-656.8" font-family="Times New Roman,serif" font-size="14.00">id_arquivo</text>
<text text-anchor="middle" x="96.5" y="-641.8" font-family="Times New Roman,serif" font-size="14.00">id_bco_convenio</text>
</g>
<!-- PGT_ARQUIVO&#45;&gt;ARQUIVO -->
<g id="edge8" class="edge">
<title>PGT_ARQUIVO&#45;&gt;ARQUIVO</title>
<path fill="none" stroke="black" d="M154.66,-677.31C200.39,-688.67 265.48,-707.36 319,-732.5 326.25,-735.91 333.59,-739.81 340.81,-743.96"/>
<polygon fill="black" stroke="black" points="339.47,-747.24 349.86,-749.33 343.05,-741.22 339.47,-747.24"/>
<text text-anchor="middle" x="265" y="-736.3" font-family="Times New Roman,serif" font-size="14.00">pgt_arquivo_fk1</text>
</g>
<!-- PGT_ARQUIVO&#45;&gt;BCO_CONVENIO -->
<g id="edge23" class="edge">
<title>PGT_ARQUIVO&#45;&gt;BCO_CONVENIO</title>
<path fill="none" stroke="black" d="M154.7,-663.45C211.31,-661.37 293.15,-655.29 319,-637.5 333.09,-627.81 324.15,-614.78 337,-603.5 338.74,-601.97 340.57,-600.53 342.47,-599.15"/>
<polygon fill="black" stroke="black" points="344.64,-601.93 351.22,-593.62 340.89,-596.01 344.64,-601.93"/>
<text text-anchor="middle" x="265" y="-663.3" font-family="Times New Roman,serif" font-size="14.00">pgt_arquivo_fk2</text>
</g>
<!-- ARQ_CONTEUDO&#45;&gt;ARQ_TRANSMISSAO -->
<g id="edge20" class="edge">
<title>ARQ_CONTEUDO&#45;&gt;ARQ_TRANSMISSAO</title>
<path fill="none" stroke="black" d="M781.2,-648.48C820.18,-673.77 870.25,-706.26 912.35,-733.58"/>
<polygon fill="black" stroke="black" points="910.64,-736.64 920.93,-739.14 914.45,-730.76 910.64,-736.64"/>
<text text-anchor="middle" x="851" y="-727.3" font-family="Times New Roman,serif" font-size="14.00">arq_conteudo_fk3</text>
</g>
<!-- ARQ_TIPO -->
<g id="node14" class="node">
<title>ARQ_TIPO</title>
<polygon fill="none" stroke="black" points="955,-521.5 955,-597.5 1041,-597.5 1041,-521.5 955,-521.5"/>
<text text-anchor="middle" x="998" y="-582.3" font-family="Times New Roman,serif" font-size="14.00">ARQ_TIPO</text>
<polyline fill="none" stroke="black" points="955,-574.5 1041,-574.5 "/>
<text text-anchor="middle" x="998" y="-559.3" font-family="Times New Roman,serif" font-size="14.00">id_arq_tipo</text>
<text text-anchor="middle" x="998" y="-544.3" font-family="Times New Roman,serif" font-size="14.00">descricao</text>
<text text-anchor="middle" x="998" y="-529.3" font-family="Times New Roman,serif" font-size="14.00">prioridade</text>
</g>
<!-- ARQ_CONTEUDO&#45;&gt;ARQ_TIPO -->
<g id="edge13" class="edge">
<title>ARQ_CONTEUDO&#45;&gt;ARQ_TIPO</title>
<path fill="none" stroke="black" d="M781.2,-595.66C830.84,-587.34 898.48,-576.01 944.72,-568.26"/>
<polygon fill="black" stroke="black" points="945.54,-571.67 954.82,-566.57 944.38,-564.77 945.54,-571.67"/>
<text text-anchor="middle" x="851" y="-596.3" font-family="Times New Roman,serif" font-size="14.00">arq_conteudo_fk1</text>
</g>
<!-- ARQ_OPERACAO -->
<g id="node15" class="node">
<title>ARQ_OPERACAO</title>
<polygon fill="none" stroke="black" points="932.5,-616.5 932.5,-692.5 1063.5,-692.5 1063.5,-616.5 932.5,-616.5"/>
<text text-anchor="middle" x="998" y="-677.3" font-family="Times New Roman,serif" font-size="14.00">ARQ_OPERACAO</text>
<polyline fill="none" stroke="black" points="932.5,-669.5 1063.5,-669.5 "/>
<text text-anchor="middle" x="998" y="-654.3" font-family="Times New Roman,serif" font-size="14.00">id_arq_operacao</text>
<text text-anchor="middle" x="998" y="-639.3" font-family="Times New Roman,serif" font-size="14.00">descricao</text>
<text text-anchor="middle" x="998" y="-624.3" font-family="Times New Roman,serif" font-size="14.00">mover_arquivo</text>
</g>
<!-- ARQ_CONTEUDO&#45;&gt;ARQ_OPERACAO -->
<g id="edge14" class="edge">
<title>ARQ_CONTEUDO&#45;&gt;ARQ_OPERACAO</title>
<path fill="none" stroke="black" d="M781.2,-617.57C823.23,-624.76 878.16,-634.16 922.08,-641.68"/>
<polygon fill="black" stroke="black" points="921.69,-645.16 932.14,-643.4 922.87,-638.26 921.69,-645.16"/>
<text text-anchor="middle" x="851" y="-641.3" font-family="Times New Roman,serif" font-size="14.00">arq_conteudo_fk2</text>
</g>
<!-- ECO_EMISSOR -->
<g id="node11" class="node">
<title>ECO_EMISSOR</title>
<polygon fill="none" stroke="black" points="356,-0.5 356,-76.5 470,-76.5 470,-0.5 356,-0.5"/>
<text text-anchor="middle" x="413" y="-61.3" font-family="Times New Roman,serif" font-size="14.00">ECO_EMISSOR</text>
<polyline fill="none" stroke="black" points="356,-53.5 470,-53.5 "/>
<text text-anchor="middle" x="413" y="-38.3" font-family="Times New Roman,serif" font-size="14.00">id_eco_regional</text>
<text text-anchor="middle" x="413" y="-23.3" font-family="Times New Roman,serif" font-size="14.00">id_emissor</text>
<text text-anchor="middle" x="413" y="-8.3" font-family="Times New Roman,serif" font-size="14.00">centro_custo</text>
</g>
<!-- ECO_EMISSOR&#45;&gt;EMISSOR -->
<g id="edge10" class="edge">
<title>ECO_EMISSOR&#45;&gt;EMISSOR</title>
<path fill="none" stroke="black" d="M470.05,-52.37C531.02,-67.97 621.31,-92.8 632,-105.5 652.34,-129.66 639.62,-216.67 650,-246.5 652.53,-253.77 655.6,-261.09 659.01,-268.29"/>
<polygon fill="black" stroke="black" points="655.92,-269.94 663.5,-277.35 662.19,-266.83 655.92,-269.94"/>
<text text-anchor="middle" x="569.5" y="-109.3" font-family="Times New Roman,serif" font-size="14.00">eco_emissor_fk2</text>
</g>
<!-- ECO_REGIONAL -->
<g id="node16" class="node">
<title>ECO_REGIONAL</title>
<polygon fill="none" stroke="black" points="653.5,-20.5 653.5,-56.5 777.5,-56.5 777.5,-20.5 653.5,-20.5"/>
<text text-anchor="middle" x="715.5" y="-34.8" font-family="Times New Roman,serif" font-size="14.00">ECO_REGIONAL</text>
</g>
<!-- ECO_EMISSOR&#45;&gt;ECO_REGIONAL -->
<g id="edge15" class="edge">
<title>ECO_EMISSOR&#45;&gt;ECO_REGIONAL</title>
<path fill="none" stroke="black" d="M470.17,-38.5C519.06,-38.5 590.19,-38.5 643.11,-38.5"/>
<polygon fill="black" stroke="black" points="643.44,-42 653.44,-38.5 643.44,-35 643.44,-42"/>
<text text-anchor="middle" x="569.5" y="-42.3" font-family="Times New Roman,serif" font-size="14.00">eco_emissor_fk1</text>
</g>
<!-- ARQ_MEIO -->
<g id="node22" class="node">
<title>ARQ_MEIO</title>
<polygon fill="none" stroke="black" points="1229,-750.5 1229,-826.5 1321,-826.5 1321,-750.5 1229,-750.5"/>
<text text-anchor="middle" x="1275" y="-811.3" font-family="Times New Roman,serif" font-size="14.00">ARQ_MEIO</text>
<polyline fill="none" stroke="black" points="1229,-803.5 1321,-803.5 "/>
<text text-anchor="middle" x="1275" y="-788.3" font-family="Times New Roman,serif" font-size="14.00">id_arq_meio</text>
<text text-anchor="middle" x="1275" y="-773.3" font-family="Times New Roman,serif" font-size="14.00">descricao</text>
<text text-anchor="middle" x="1275" y="-758.3" font-family="Times New Roman,serif" font-size="14.00">trans_propria</text>
</g>
<!-- ARQ_TRANSMISSAO&#45;&gt;ARQ_MEIO -->
<g id="edge25" class="edge">
<title>ARQ_TRANSMISSAO&#45;&gt;ARQ_MEIO</title>
<path fill="none" stroke="black" d="M1075.24,-788.5C1120.66,-788.5 1177.3,-788.5 1218.49,-788.5"/>
<polygon fill="black" stroke="black" points="1218.61,-792 1228.61,-788.5 1218.61,-785 1218.61,-792"/>
<text text-anchor="middle" x="1152" y="-792.3" font-family="Times New Roman,serif" font-size="14.00">arq_transmissao_fk1</text>
</g>
<!-- ETI_EMISSOR -->
<g id="node17" class="node">
<title>ETI_EMISSOR</title>
<polygon fill="none" stroke="black" points="359.5,-176.5 359.5,-252.5 466.5,-252.5 466.5,-176.5 359.5,-176.5"/>
<text text-anchor="middle" x="413" y="-237.3" font-family="Times New Roman,serif" font-size="14.00">ETI_EMISSOR</text>
<polyline fill="none" stroke="black" points="359.5,-229.5 466.5,-229.5 "/>
<text text-anchor="middle" x="413" y="-214.3" font-family="Times New Roman,serif" font-size="14.00">id_emissor</text>
<text text-anchor="middle" x="413" y="-199.3" font-family="Times New Roman,serif" font-size="14.00">ativo</text>
<text text-anchor="middle" x="413" y="-184.3" font-family="Times New Roman,serif" font-size="14.00">rot_prazo</text>
</g>
<!-- ETI_EMISSOR&#45;&gt;EMISSOR -->
<g id="edge16" class="edge">
<title>ETI_EMISSOR&#45;&gt;EMISSOR</title>
<path fill="none" stroke="black" d="M466.69,-238.87C519.04,-263.09 599.23,-300.18 654.12,-325.57"/>
<polygon fill="black" stroke="black" points="652.83,-328.83 663.38,-329.85 655.77,-322.48 652.83,-328.83"/>
<text text-anchor="middle" x="569.5" y="-315.3" font-family="Times New Roman,serif" font-size="14.00">eti_emissor_fk1</text>
</g>
<!-- OP_NIVEL_EMISSOR -->
<g id="node18" class="node">
<title>OP_NIVEL_EMISSOR</title>
<polygon fill="none" stroke="black" points="337,-96 337,-157 489,-157 489,-96 337,-96"/>
<text text-anchor="middle" x="413" y="-141.8" font-family="Times New Roman,serif" font-size="14.00">OP_NIVEL_EMISSOR</text>
<polyline fill="none" stroke="black" points="337,-134 489,-134 "/>
<text text-anchor="middle" x="413" y="-118.8" font-family="Times New Roman,serif" font-size="14.00">id_op_nivel</text>
<text text-anchor="middle" x="413" y="-103.8" font-family="Times New Roman,serif" font-size="14.00">id_emissor</text>
</g>
<!-- OP_NIVEL_EMISSOR&#45;&gt;EMISSOR -->
<g id="edge18" class="edge">
<title>OP_NIVEL_EMISSOR&#45;&gt;EMISSOR</title>
<path fill="none" stroke="black" d="M489.17,-155.05C533.82,-174.42 589.78,-203.11 632,-239.5 640.82,-247.1 649.21,-255.82 657.04,-264.98"/>
<polygon fill="black" stroke="black" points="654.4,-267.29 663.47,-272.77 659.8,-262.83 654.4,-267.29"/>
<text text-anchor="middle" x="569.5" y="-243.3" font-family="Times New Roman,serif" font-size="14.00">op_nivel_emissor_fk2</text>
</g>
<!-- OP_NIVEL -->
<g id="node21" class="node">
<title>OP_NIVEL</title>
<polygon fill="none" stroke="black" points="674,-105.5 674,-141.5 757,-141.5 757,-105.5 674,-105.5"/>
<text text-anchor="middle" x="715.5" y="-119.8" font-family="Times New Roman,serif" font-size="14.00">OP_NIVEL</text>
</g>
<!-- OP_NIVEL_EMISSOR&#45;&gt;OP_NIVEL -->
<g id="edge22" class="edge">
<title>OP_NIVEL_EMISSOR&#45;&gt;OP_NIVEL</title>
<path fill="none" stroke="black" d="M489.05,-125.75C543.47,-125.21 615.62,-124.49 663.48,-124.01"/>
<polygon fill="black" stroke="black" points="663.64,-127.51 673.6,-123.91 663.57,-120.51 663.64,-127.51"/>
<text text-anchor="middle" x="569.5" y="-130.3" font-family="Times New Roman,serif" font-size="14.00">op_nivel_emissor_fk1</text>
</g>
<!-- TRS_EMISSOR -->
<g id="node19" class="node">
<title>TRS_EMISSOR</title>
<polygon fill="none" stroke="black" points="659,-160.5 659,-236.5 772,-236.5 772,-160.5 659,-160.5"/>
<text text-anchor="middle" x="715.5" y="-221.3" font-family="Times New Roman,serif" font-size="14.00">TRS_EMISSOR</text>
<polyline fill="none" stroke="black" points="659,-213.5 772,-213.5 "/>
<text text-anchor="middle" x="715.5" y="-198.3" font-family="Times New Roman,serif" font-size="14.00">id_trs_canal</text>
<text text-anchor="middle" x="715.5" y="-183.3" font-family="Times New Roman,serif" font-size="14.00">id_emissor</text>
<text text-anchor="middle" x="715.5" y="-168.3" font-family="Times New Roman,serif" font-size="14.00">id_ccg_conta</text>
</g>
<!-- TRS_EMISSOR&#45;&gt;CCG_CONTA -->
<g id="edge19" class="edge">
<title>TRS_EMISSOR&#45;&gt;CCG_CONTA</title>
<path fill="none" stroke="black" d="M772.25,-208.44C819.54,-216.87 887.25,-228.94 935.98,-237.62"/>
<polygon fill="black" stroke="black" points="935.61,-241.11 946.07,-239.42 936.84,-234.22 935.61,-241.11"/>
<text text-anchor="middle" x="851" y="-234.3" font-family="Times New Roman,serif" font-size="14.00">trs_emissor_fk1</text>
</g>
<!-- ARQ_RELATORIO -->
<g id="node20" class="node">
<title>ARQ_RELATORIO</title>
<polygon fill="none" stroke="black" points="29.5,-714.5 29.5,-790.5 163.5,-790.5 163.5,-714.5 29.5,-714.5"/>
<text text-anchor="middle" x="96.5" y="-775.3" font-family="Times New Roman,serif" font-size="14.00">ARQ_RELATORIO</text>
<polyline fill="none" stroke="black" points="29.5,-767.5 163.5,-767.5 "/>
<text text-anchor="middle" x="96.5" y="-752.3" font-family="Times New Roman,serif" font-size="14.00">id_arquivo</text>
<text text-anchor="middle" x="96.5" y="-737.3" font-family="Times New Roman,serif" font-size="14.00">linha</text>
<text text-anchor="middle" x="96.5" y="-722.3" font-family="Times New Roman,serif" font-size="14.00">texto</text>
</g>
<!-- ARQ_RELATORIO&#45;&gt;ARQUIVO -->
<g id="edge21" class="edge">
<title>ARQ_RELATORIO&#45;&gt;ARQUIVO</title>
<path fill="none" stroke="black" d="M163.95,-750.74C208.23,-750.73 267.53,-752.95 319,-762.5 325.96,-763.79 333.11,-765.48 340.21,-767.41"/>
<polygon fill="black" stroke="black" points="339.26,-770.77 349.84,-770.16 341.19,-764.04 339.26,-770.77"/>
<text text-anchor="middle" x="265" y="-766.3" font-family="Times New Roman,serif" font-size="14.00">arq_relatorio_fk1</text>
</g>
<!-- CIOT_EMISSOR -->
<g id="node24" class="node">
<title>CIOT_EMISSOR</title>
<polygon fill="none" stroke="black" points="37,-935 37,-1086 156,-1086 156,-935 37,-935"/>
<text text-anchor="middle" x="96.5" y="-1070.8" font-family="Times New Roman,serif" font-size="14.00">CIOT_EMISSOR</text>
<polyline fill="none" stroke="black" points="37,-1063 156,-1063 "/>
<text text-anchor="middle" x="96.5" y="-1047.8" font-family="Times New Roman,serif" font-size="14.00">id_emissor</text>
<text text-anchor="middle" x="96.5" y="-1032.8" font-family="Times New Roman,serif" font-size="14.00">ativo</text>
<text text-anchor="middle" x="96.5" y="-1017.8" font-family="Times New Roman,serif" font-size="14.00">cod_antt</text>
<text text-anchor="middle" x="96.5" y="-1002.8" font-family="Times New Roman,serif" font-size="14.00">chave</text>
<text text-anchor="middle" x="96.5" y="-987.8" font-family="Times New Roman,serif" font-size="14.00">trace</text>
<text text-anchor="middle" x="96.5" y="-972.8" font-family="Times New Roman,serif" font-size="14.00">ambiente</text>
<text text-anchor="middle" x="96.5" y="-957.8" font-family="Times New Roman,serif" font-size="14.00">contingencia</text>
<text text-anchor="middle" x="96.5" y="-942.8" font-family="Times New Roman,serif" font-size="14.00">sequencia</text>
</g>
<!-- LEG_EMISSOR -->
<g id="node25" class="node">
<title>LEG_EMISSOR</title>
<polygon fill="none" stroke="black" points="40,-1105 40,-1226 153,-1226 153,-1105 40,-1105"/>
<text text-anchor="middle" x="96.5" y="-1210.8" font-family="Times New Roman,serif" font-size="14.00">LEG_EMISSOR</text>
<polyline fill="none" stroke="black" points="40,-1203 153,-1203 "/>
<text text-anchor="middle" x="96.5" y="-1187.8" font-family="Times New Roman,serif" font-size="14.00">id_emissor</text>
<text text-anchor="middle" x="96.5" y="-1172.8" font-family="Times New Roman,serif" font-size="14.00">nome</text>
<text text-anchor="middle" x="96.5" y="-1157.8" font-family="Times New Roman,serif" font-size="14.00">email</text>
<text text-anchor="middle" x="96.5" y="-1142.8" font-family="Times New Roman,serif" font-size="14.00">telefone</text>
<text text-anchor="middle" x="96.5" y="-1127.8" font-family="Times New Roman,serif" font-size="14.00">cep</text>
<text text-anchor="middle" x="96.5" y="-1112.8" font-family="Times New Roman,serif" font-size="14.00">sistema</text>
</g>
<!-- VW_OPERADOR_EMISSOR -->
<g id="node26" class="node">
<title>VW_OPERADOR_EMISSOR</title>
<polygon fill="none" stroke="black" points="0,-1245 0,-1306 193,-1306 193,-1245 0,-1245"/>
<text text-anchor="middle" x="96.5" y="-1290.8" font-family="Times New Roman,serif" font-size="14.00">VW_OPERADOR_EMISSOR</text>
<polyline fill="none" stroke="black" points="0,-1283 193,-1283 "/>
<text text-anchor="middle" x="96.5" y="-1267.8" font-family="Times New Roman,serif" font-size="14.00">id_operador</text>
<text text-anchor="middle" x="96.5" y="-1252.8" font-family="Times New Roman,serif" font-size="14.00">id_emissor</text>
</g>
</g>
</svg>
